let music = [
{
  "header": {
    "keySignatures": [
      {
        "key": "D",
        "scale": "major",
        "ticks": 0
      },
      {
        "key": "E",
        "scale": "major",
        "ticks": 122880
      }
    ],
    "meta": [],
    "name": "Piano",
    "ppq": 480,
    "tempos": [
      {
        "bpm": 120,
        "ticks": 0
      },
      {
        "bpm": 100,
        "ticks": 480
      }
    ],
    "timeSignatures": [
      {
        "ticks": 0,
        "timeSignature": [
          4,
          4
        ],
        "measures": 0
      }
    ]
  },
  "tracks": [
    {
      "channel": 0,
      "controlChanges": {
        "6": [
          {
            "number": 6,
            "ticks": 0,
            "time": 0,
            "value": 0.09448818897637795
          }
        ],
        "7": [
          {
            "number": 7,
            "ticks": 0,
            "time": 0,
            "value": 0.7874015748031497
          }
        ],
        "10": [
          {
            "number": 10,
            "ticks": 0,
            "time": 0,
            "value": 0.5039370078740157
          }
        ],
        "91": [
          {
            "number": 91,
            "ticks": 0,
            "time": 0,
            "value": 0
          }
        ],
        "93": [
          {
            "number": 93,
            "ticks": 0,
            "time": 0,
            "value": 0
          }
        ],
        "100": [
          {
            "number": 100,
            "ticks": 0,
            "time": 0,
            "value": 0
          },
          {
            "number": 100,
            "ticks": 0,
            "time": 0,
            "value": 1
          }
        ],
        "101": [
          {
            "number": 101,
            "ticks": 0,
            "time": 0,
            "value": 0
          },
          {
            "number": 101,
            "ticks": 0,
            "time": 0,
            "value": 1
          }
        ],
        "121": [
          {
            "number": 121,
            "ticks": 0,
            "time": 0,
            "value": 0
          }
        ]
      },
      "pitchBends": [],
      "instrument": {
        "family": "piano",
        "number": 0,
        "name": "acoustic grand piano"
      },
      "name": "Piano",
      "notes": [
        {
          "duration": 0.14874999999999994,
          "durationTicks": 119,
          "midi": 66,
          "name": "F#4",
          "ticks": 480,
          "time": 0.5,
          "velocity": 0.6299212598425197
        },
        {
          "duration": 0.14875000000000005,
          "durationTicks": 119,
          "midi": 66,
          "name": "F#4",
          "ticks": 600,
          "time": 0.65,
          "velocity": 0.6299212598425197
        },
        {
          "duration": 0.29874999999999985,
          "durationTicks": 239,
          "midi": 66,
          "name": "F#4",
          "ticks": 720,
          "time": 0.8,
          "velocity": 0.6299212598425197
        },
        {
          "duration": 0.29874999999999985,
          "durationTicks": 239,
          "midi": 66,
          "name": "F#4",
          "ticks": 960,
          "time": 1.1,
          "velocity": 0.6299212598425197
        },
        {
          "duration": 0.29875000000000007,
          "durationTicks": 239,
          "midi": 57,
          "name": "A3",
          "ticks": 1200,
          "time": 1.4,
          "velocity": 0.6299212598425197
        },
        {
          "duration": 0.29875000000000007,
          "durationTicks": 239,
          "midi": 57,
          "name": "A3",
          "ticks": 1440,
          "time": 1.7,
          "velocity": 0.6299212598425197
        },
        {
          "duration": 0.5987499999999999,
          "durationTicks": 479,
          "midi": 64,
          "name": "E4",
          "ticks": 1680,
          "time": 2,
          "velocity": 0.6299212598425197
        },
        {
          "duration": 0.14874999999999972,
          "durationTicks": 119,
          "midi": 64,
          "name": "E4",
          "ticks": 2760,
          "time": 3.35,
          "velocity": 0.6299212598425197
        },
        {
          "duration": 0.29875000000000007,
          "durationTicks": 239,
          "midi": 64,
          "name": "E4",
          "ticks": 2880,
          "time": 3.5,
          "velocity": 0.6299212598425197
        },
        {
          "duration": 0.29875000000000007,
          "durationTicks": 239,
          "midi": 66,
          "name": "F#4",
          "ticks": 3120,
          "time": 3.8,
          "velocity": 0.6299212598425197
        },
        {
          "duration": 0.29875000000000007,
          "durationTicks": 239,
          "midi": 57,
          "name": "A3",
          "ticks": 3360,
          "time": 4.1,
          "velocity": 0.6299212598425197
        },
        {
          "duration": 0.5987499999999999,
          "durationTicks": 479,
          "midi": 64,
          "name": "E4",
          "ticks": 3600,
          "time": 4.4,
          "velocity": 0.6299212598425197
        },
        {
          "duration": 0.14874999999999972,
          "durationTicks": 119,
          "midi": 64,
          "name": "E4",
          "ticks": 4680,
          "time": 5.75,
          "velocity": 0.6299212598425197
        },
        {
          "duration": 0.29875000000000007,
          "durationTicks": 239,
          "midi": 64,
          "name": "E4",
          "ticks": 4800,
          "time": 5.8999999999999995,
          "velocity": 0.6299212598425197
        },
        {
          "duration": 0.29875000000000007,
          "durationTicks": 239,
          "midi": 66,
          "name": "F#4",
          "ticks": 5040,
          "time": 6.2,
          "velocity": 0.6299212598425197
        },
        {
          "duration": 0.29875000000000007,
          "durationTicks": 239,
          "midi": 64,
          "name": "E4",
          "ticks": 5280,
          "time": 6.5,
          "velocity": 0.6299212598425197
        },
        {
          "duration": 0.5987499999999999,
          "durationTicks": 479,
          "midi": 62,
          "name": "D4",
          "ticks": 5520,
          "time": 6.8,
          "velocity": 0.6299212598425197
        },
        {
          "duration": 0.14874999999999972,
          "durationTicks": 119,
          "midi": 66,
          "name": "F#4",
          "ticks": 8160,
          "time": 10.1,
          "velocity": 0.6299212598425197
        },
        {
          "duration": 0.14874999999999794,
          "durationTicks": 119,
          "midi": 66,
          "name": "F#4",
          "ticks": 8280,
          "time": 10.25,
          "velocity": 0.6299212598425197
        },
        {
          "duration": 0.2987499999999983,
          "durationTicks": 239,
          "midi": 66,
          "name": "F#4",
          "ticks": 8400,
          "time": 10.4,
          "velocity": 0.6299212598425197
        },
        {
          "duration": 0.29875000000000007,
          "durationTicks": 239,
          "midi": 66,
          "name": "F#4",
          "ticks": 8640,
          "time": 10.7,
          "velocity": 0.6299212598425197
        },
        {
          "duration": 0.2987499999999983,
          "durationTicks": 239,
          "midi": 57,
          "name": "A3",
          "ticks": 8880,
          "time": 11,
          "velocity": 0.6299212598425197
        },
        {
          "duration": 0.29875000000000007,
          "durationTicks": 239,
          "midi": 57,
          "name": "A3",
          "ticks": 9120,
          "time": 11.299999999999999,
          "velocity": 0.6299212598425197
        },
        {
          "duration": 0.598749999999999,
          "durationTicks": 479,
          "midi": 64,
          "name": "E4",
          "ticks": 9360,
          "time": 11.6,
          "velocity": 0.6299212598425197
        },
        {
          "duration": 0.14874999999999972,
          "durationTicks": 119,
          "midi": 64,
          "name": "E4",
          "ticks": 10440,
          "time": 12.95,
          "velocity": 0.6299212598425197
        },
        {
          "duration": 0.2987499999999983,
          "durationTicks": 239,
          "midi": 64,
          "name": "E4",
          "ticks": 10560,
          "time": 13.1,
          "velocity": 0.6299212598425197
        },
        {
          "duration": 0.2987499999999983,
          "durationTicks": 239,
          "midi": 66,
          "name": "F#4",
          "ticks": 10800,
          "time": 13.4,
          "velocity": 0.6299212598425197
        },
        {
          "duration": 0.29875000000000007,
          "durationTicks": 239,
          "midi": 57,
          "name": "A3",
          "ticks": 11040,
          "time": 13.7,
          "velocity": 0.6299212598425197
        },
        {
          "duration": 0.598749999999999,
          "durationTicks": 479,
          "midi": 64,
          "name": "E4",
          "ticks": 11280,
          "time": 14,
          "velocity": 0.6299212598425197
        },
        {
          "duration": 0.2987499999999983,
          "durationTicks": 239,
          "midi": 64,
          "name": "E4",
          "ticks": 12240,
          "time": 15.2,
          "velocity": 0.6299212598425197
        },
        {
          "duration": 0.2987499999999983,
          "durationTicks": 239,
          "midi": 66,
          "name": "F#4",
          "ticks": 12480,
          "time": 15.5,
          "velocity": 0.6299212598425197
        },
        {
          "duration": 0.29875000000000007,
          "durationTicks": 239,
          "midi": 64,
          "name": "E4",
          "ticks": 12720,
          "time": 15.799999999999999,
          "velocity": 0.6299212598425197
        },
        {
          "duration": 0.2987499999999983,
          "durationTicks": 239,
          "midi": 62,
          "name": "D4",
          "ticks": 12960,
          "time": 16.1,
          "velocity": 0.6299212598425197
        },
        {
          "duration": 0.598749999999999,
          "durationTicks": 479,
          "midi": 64,
          "name": "E4",
          "ticks": 13200,
          "time": 16.4,
          "velocity": 0.6299212598425197
        },
        {
          "duration": 0.8987499999999997,
          "durationTicks": 719,
          "midi": 59,
          "name": "B3",
          "ticks": 13680,
          "time": 17,
          "velocity": 0.6299212598425197
        },
        {
          "duration": 0.29875000000000185,
          "durationTicks": 239,
          "midi": 62,
          "name": "D4",
          "ticks": 16560,
          "time": 20.599999999999998,
          "velocity": 0.6299212598425197
        },
        {
          "duration": 0.29875000000000185,
          "durationTicks": 239,
          "midi": 62,
          "name": "D4",
          "ticks": 16800,
          "time": 20.9,
          "velocity": 0.6299212598425197
        },
        {
          "duration": 0.29875000000000185,
          "durationTicks": 239,
          "midi": 62,
          "name": "D4",
          "ticks": 17040,
          "time": 21.2,
          "velocity": 0.6299212598425197
        },
        {
          "duration": 0.29875000000000185,
          "durationTicks": 239,
          "midi": 67,
          "name": "G4",
          "ticks": 17280,
          "time": 21.5,
          "velocity": 0.6299212598425197
        },
        {
          "duration": 0.2987499999999983,
          "durationTicks": 239,
          "midi": 69,
          "name": "A4",
          "ticks": 17520,
          "time": 21.8,
          "velocity": 0.6299212598425197
        },
        {
          "duration": 0.29875000000000185,
          "durationTicks": 239,
          "midi": 71,
          "name": "B4",
          "ticks": 17760,
          "time": 22.099999999999998,
          "velocity": 0.6299212598425197
        },
        {
          "duration": 0.5987500000000026,
          "durationTicks": 479,
          "midi": 69,
          "name": "A4",
          "ticks": 18000,
          "time": 22.4,
          "velocity": 0.6299212598425197
        },
        {
          "duration": 0.29875000000000185,
          "durationTicks": 239,
          "midi": 66,
          "name": "F#4",
          "ticks": 18480,
          "time": 23,
          "velocity": 0.6299212598425197
        },
        {
          "duration": 0.2987499999999983,
          "durationTicks": 239,
          "midi": 62,
          "name": "D4",
          "ticks": 18720,
          "time": 23.3,
          "velocity": 0.6299212598425197
        },
        {
          "duration": 0.5987500000000026,
          "durationTicks": 479,
          "midi": 64,
          "name": "E4",
          "ticks": 18960,
          "time": 23.599999999999998,
          "velocity": 0.6299212598425197
        },
        {
          "duration": 0.29875000000000185,
          "durationTicks": 239,
          "midi": 66,
          "name": "F#4",
          "ticks": 19440,
          "time": 24.2,
          "velocity": 0.6299212598425197
        },
        {
          "duration": 0.29875000000000185,
          "durationTicks": 239,
          "midi": 67,
          "name": "G4",
          "ticks": 19680,
          "time": 24.5,
          "velocity": 0.6299212598425197
        },
        {
          "duration": 0.8987499999999997,
          "durationTicks": 719,
          "midi": 66,
          "name": "F#4",
          "ticks": 19920,
          "time": 24.8,
          "velocity": 0.6299212598425197
        },
        {
          "duration": 0.29875000000000185,
          "durationTicks": 239,
          "midi": 62,
          "name": "D4",
          "ticks": 20640,
          "time": 25.7,
          "velocity": 0.6299212598425197
        },
        {
          "duration": 0.29875000000000185,
          "durationTicks": 239,
          "midi": 62,
          "name": "D4",
          "ticks": 20880,
          "time": 26,
          "velocity": 0.6299212598425197
        },
        {
          "duration": 0.2987499999999983,
          "durationTicks": 239,
          "midi": 67,
          "name": "G4",
          "ticks": 21120,
          "time": 26.3,
          "velocity": 0.6299212598425197
        },
        {
          "duration": 0.29875000000000185,
          "durationTicks": 239,
          "midi": 69,
          "name": "A4",
          "ticks": 21360,
          "time": 26.599999999999998,
          "velocity": 0.6299212598425197
        },
        {
          "duration": 0.29875000000000185,
          "durationTicks": 239,
          "midi": 71,
          "name": "B4",
          "ticks": 21600,
          "time": 26.9,
          "velocity": 0.6299212598425197
        },
        {
          "duration": 0.5987500000000026,
          "durationTicks": 479,
          "midi": 69,
          "name": "A4",
          "ticks": 21840,
          "time": 27.2,
          "velocity": 0.6299212598425197
        },
        {
          "duration": 0.2987499999999983,
          "durationTicks": 239,
          "midi": 66,
          "name": "F#4",
          "ticks": 22320,
          "time": 27.8,
          "velocity": 0.6299212598425197
        },
        {
          "duration": 0.29875000000000185,
          "durationTicks": 239,
          "midi": 62,
          "name": "D4",
          "ticks": 22560,
          "time": 28.099999999999998,
          "velocity": 0.6299212598425197
        },
        {
          "duration": 0.5987500000000026,
          "durationTicks": 479,
          "midi": 64,
          "name": "E4",
          "ticks": 22800,
          "time": 28.4,
          "velocity": 0.6299212598425197
        },
        {
          "duration": 0.29875000000000185,
          "durationTicks": 239,
          "midi": 66,
          "name": "F#4",
          "ticks": 23280,
          "time": 29,
          "velocity": 0.6299212598425197
        },
        {
          "duration": 0.29875000000000185,
          "durationTicks": 239,
          "midi": 64,
          "name": "E4",
          "ticks": 23520,
          "time": 29.299999999999997,
          "velocity": 0.6299212598425197
        },
        {
          "duration": 0.8987500000000033,
          "durationTicks": 719,
          "midi": 62,
          "name": "D4",
          "ticks": 23760,
          "time": 29.599999999999998,
          "velocity": 0.6299212598425197
        },
        {
          "duration": 0.2987499999999983,
          "durationTicks": 239,
          "midi": 62,
          "name": "D4",
          "ticks": 24480,
          "time": 30.5,
          "velocity": 0.6299212598425197
        },
        {
          "duration": 0.29875000000000185,
          "durationTicks": 239,
          "midi": 62,
          "name": "D4",
          "ticks": 24720,
          "time": 30.799999999999997,
          "velocity": 0.6299212598425197
        },
        {
          "duration": 0.29875000000000185,
          "durationTicks": 239,
          "midi": 67,
          "name": "G4",
          "ticks": 24960,
          "time": 31.099999999999998,
          "velocity": 0.6299212598425197
        },
        {
          "duration": 0.29875000000000185,
          "durationTicks": 239,
          "midi": 69,
          "name": "A4",
          "ticks": 25200,
          "time": 31.4,
          "velocity": 0.6299212598425197
        },
        {
          "duration": 0.29875000000000185,
          "durationTicks": 239,
          "midi": 71,
          "name": "B4",
          "ticks": 25440,
          "time": 31.7,
          "velocity": 0.6299212598425197
        },
        {
          "duration": 0.5987500000000026,
          "durationTicks": 479,
          "midi": 69,
          "name": "A4",
          "ticks": 25680,
          "time": 32,
          "velocity": 0.6299212598425197
        },
        {
          "duration": 0.2987499999999983,
          "durationTicks": 239,
          "midi": 66,
          "name": "F#4",
          "ticks": 26160,
          "time": 32.6,
          "velocity": 0.6299212598425197
        },
        {
          "duration": 0.2987499999999983,
          "durationTicks": 239,
          "midi": 62,
          "name": "D4",
          "ticks": 26400,
          "time": 32.9,
          "velocity": 0.6299212598425197
        },
        {
          "duration": 0.5987500000000026,
          "durationTicks": 479,
          "midi": 64,
          "name": "E4",
          "ticks": 26640,
          "time": 33.199999999999996,
          "velocity": 0.6299212598425197
        },
        {
          "duration": 0.2987500000000054,
          "durationTicks": 239,
          "midi": 66,
          "name": "F#4",
          "ticks": 27120,
          "time": 33.8,
          "velocity": 0.6299212598425197
        },
        {
          "duration": 0.2987499999999983,
          "durationTicks": 239,
          "midi": 67,
          "name": "G4",
          "ticks": 27360,
          "time": 34.1,
          "velocity": 0.6299212598425197
        },
        {
          "duration": 0.5987500000000026,
          "durationTicks": 479,
          "midi": 66,
          "name": "F#4",
          "ticks": 27600,
          "time": 34.4,
          "velocity": 0.6299212598425197
        },
        {
          "duration": 0.2987499999999983,
          "durationTicks": 239,
          "midi": 64,
          "name": "E4",
          "ticks": 28080,
          "time": 35,
          "velocity": 0.6299212598425197
        },
        {
          "duration": 0.2987500000000054,
          "durationTicks": 239,
          "midi": 62,
          "name": "D4",
          "ticks": 28320,
          "time": 35.3,
          "velocity": 0.6299212598425197
        },
        {
          "duration": 0.5987499999999955,
          "durationTicks": 479,
          "midi": 59,
          "name": "B3",
          "ticks": 28560,
          "time": 35.6,
          "velocity": 0.6299212598425197
        },
        {
          "duration": 0.2987500000000054,
          "durationTicks": 239,
          "midi": 66,
          "name": "F#4",
          "ticks": 30240,
          "time": 37.699999999999996,
          "velocity": 0.6299212598425197
        },
        {
          "duration": 0.5987500000000026,
          "durationTicks": 479,
          "midi": 64,
          "name": "E4",
          "ticks": 30480,
          "time": 38,
          "velocity": 0.6299212598425197
        },
        {
          "duration": 0.2987499999999983,
          "durationTicks": 239,
          "midi": 62,
          "name": "D4",
          "ticks": 33600,
          "time": 41.9,
          "velocity": 0.6299212598425197
        },
        {
          "duration": 0.2987500000000054,
          "durationTicks": 239,
          "midi": 64,
          "name": "E4",
          "ticks": 33840,
          "time": 42.199999999999996,
          "velocity": 0.6299212598425197
        },
        {
          "duration": 0.5987500000000026,
          "durationTicks": 479,
          "midi": 62,
          "name": "D4",
          "ticks": 34080,
          "time": 42.5,
          "velocity": 0.6299212598425197
        },
        {
          "duration": 0.8987499999999997,
          "durationTicks": 719,
          "midi": 69,
          "name": "A4",
          "ticks": 34560,
          "time": 43.1,
          "velocity": 0.6299212598425197
        },
        {
          "duration": 0.5987500000000026,
          "durationTicks": 479,
          "midi": 69,
          "name": "A4",
          "ticks": 35280,
          "time": 44,
          "velocity": 0.6299212598425197
        },
        {
          "duration": 0.5987499999999955,
          "durationTicks": 479,
          "midi": 62,
          "name": "D4",
          "ticks": 35760,
          "time": 44.6,
          "velocity": 0.6299212598425197
        },
        {
          "duration": 0.5987500000000026,
          "durationTicks": 479,
          "midi": 64,
          "name": "E4",
          "ticks": 36240,
          "time": 45.199999999999996,
          "velocity": 0.6299212598425197
        },
        {
          "duration": 0.8987499999999997,
          "durationTicks": 719,
          "midi": 66,
          "name": "F#4",
          "ticks": 36720,
          "time": 45.8,
          "velocity": 0.6299212598425197
        },
        {
          "duration": 0.2987500000000054,
          "durationTicks": 239,
          "midi": 62,
          "name": "D4",
          "ticks": 37920,
          "time": 47.3,
          "velocity": 0.6299212598425197
        },
        {
          "duration": 0.2987499999999983,
          "durationTicks": 239,
          "midi": 62,
          "name": "D4",
          "ticks": 38160,
          "time": 47.6,
          "velocity": 0.6299212598425197
        },
        {
          "duration": 0.5987500000000026,
          "durationTicks": 479,
          "midi": 69,
          "name": "A4",
          "ticks": 38400,
          "time": 47.9,
          "velocity": 0.6299212598425197
        },
        {
          "duration": 0.2987499999999983,
          "durationTicks": 239,
          "midi": 69,
          "name": "A4",
          "ticks": 38880,
          "time": 48.5,
          "velocity": 0.6299212598425197
        },
        {
          "duration": 0.5987500000000026,
          "durationTicks": 479,
          "midi": 69,
          "name": "A4",
          "ticks": 39120,
          "time": 48.8,
          "velocity": 0.6299212598425197
        },
        {
          "duration": 0.5987500000000026,
          "durationTicks": 479,
          "midi": 62,
          "name": "D4",
          "ticks": 39600,
          "time": 49.4,
          "velocity": 0.6299212598425197
        },
        {
          "duration": 0.5987500000000026,
          "durationTicks": 479,
          "midi": 64,
          "name": "E4",
          "ticks": 40080,
          "time": 50,
          "velocity": 0.6299212598425197
        },
        {
          "duration": 0.5987499999999955,
          "durationTicks": 479,
          "midi": 69,
          "name": "A4",
          "ticks": 40560,
          "time": 50.6,
          "velocity": 0.6299212598425197
        },
        {
          "duration": 0.8987500000000068,
          "durationTicks": 719,
          "midi": 66,
          "name": "F#4",
          "ticks": 41040,
          "time": 51.199999999999996,
          "velocity": 0.6299212598425197
        },
        {
          "duration": 0.2987499999999983,
          "durationTicks": 239,
          "midi": 62,
          "name": "D4",
          "ticks": 41760,
          "time": 52.1,
          "velocity": 0.6299212598425197
        },
        {
          "duration": 0.2987499999999983,
          "durationTicks": 239,
          "midi": 62,
          "name": "D4",
          "ticks": 42000,
          "time": 52.4,
          "velocity": 0.6299212598425197
        },
        {
          "duration": 0.2987500000000054,
          "durationTicks": 239,
          "midi": 67,
          "name": "G4",
          "ticks": 42240,
          "time": 52.699999999999996,
          "velocity": 0.6299212598425197
        },
        {
          "duration": 0.2987499999999983,
          "durationTicks": 239,
          "midi": 69,
          "name": "A4",
          "ticks": 42480,
          "time": 53,
          "velocity": 0.6299212598425197
        },
        {
          "duration": 0.2987500000000054,
          "durationTicks": 239,
          "midi": 71,
          "name": "B4",
          "ticks": 42720,
          "time": 53.3,
          "velocity": 0.6299212598425197
        },
        {
          "duration": 0.5987499999999955,
          "durationTicks": 479,
          "midi": 69,
          "name": "A4",
          "ticks": 42960,
          "time": 53.6,
          "velocity": 0.6299212598425197
        },
        {
          "duration": 0.2987500000000054,
          "durationTicks": 239,
          "midi": 66,
          "name": "F#4",
          "ticks": 43440,
          "time": 54.199999999999996,
          "velocity": 0.6299212598425197
        },
        {
          "duration": 0.2987499999999983,
          "durationTicks": 239,
          "midi": 62,
          "name": "D4",
          "ticks": 43680,
          "time": 54.5,
          "velocity": 0.6299212598425197
        },
        {
          "duration": 0.5987500000000026,
          "durationTicks": 479,
          "midi": 64,
          "name": "E4",
          "ticks": 43920,
          "time": 54.8,
          "velocity": 0.6299212598425197
        },
        {
          "duration": 0.2987499999999983,
          "durationTicks": 239,
          "midi": 66,
          "name": "F#4",
          "ticks": 44400,
          "time": 55.4,
          "velocity": 0.6299212598425197
        },
        {
          "duration": 0.2987500000000054,
          "durationTicks": 239,
          "midi": 67,
          "name": "G4",
          "ticks": 44640,
          "time": 55.699999999999996,
          "velocity": 0.6299212598425197
        },
        {
          "duration": 0.5987500000000026,
          "durationTicks": 479,
          "midi": 66,
          "name": "F#4",
          "ticks": 44880,
          "time": 56,
          "velocity": 0.6299212598425197
        },
        {
          "duration": 0.5987500000000026,
          "durationTicks": 479,
          "midi": 59,
          "name": "B3",
          "ticks": 46080,
          "time": 57.5,
          "velocity": 0.6299212598425197
        },
        {
          "duration": 0.2987500000000054,
          "durationTicks": 239,
          "midi": 61,
          "name": "C#4",
          "ticks": 46560,
          "time": 58.099999999999994,
          "velocity": 0.6299212598425197
        },
        {
          "duration": 0.5987500000000026,
          "durationTicks": 479,
          "midi": 62,
          "name": "D4",
          "ticks": 46800,
          "time": 58.4,
          "velocity": 0.6299212598425197
        },
        {
          "duration": 0.8987499999999997,
          "durationTicks": 719,
          "midi": 57,
          "name": "A3",
          "ticks": 47280,
          "time": 59,
          "velocity": 0.6299212598425197
        },
        {
          "duration": 0.8987499999999997,
          "durationTicks": 719,
          "midi": 66,
          "name": "F#4",
          "ticks": 48000,
          "time": 59.9,
          "velocity": 0.6299212598425197
        },
        {
          "duration": 0.14874999999999972,
          "durationTicks": 119,
          "midi": 64,
          "name": "E4",
          "ticks": 48720,
          "time": 60.8,
          "velocity": 0.6299212598425197
        },
        {
          "duration": 0.448750000000004,
          "durationTicks": 359,
          "midi": 64,
          "name": "E4",
          "ticks": 48840,
          "time": 60.949999999999996,
          "velocity": 0.6299212598425197
        },
        {
          "duration": 0.2987499999999983,
          "durationTicks": 239,
          "midi": 62,
          "name": "D4",
          "ticks": 49200,
          "time": 61.4,
          "velocity": 0.6299212598425197
        },
        {
          "duration": 0.2987500000000054,
          "durationTicks": 239,
          "midi": 61,
          "name": "C#4",
          "ticks": 49440,
          "time": 61.699999999999996,
          "velocity": 0.6299212598425197
        },
        {
          "duration": 0.2987499999999983,
          "durationTicks": 239,
          "midi": 62,
          "name": "D4",
          "ticks": 49680,
          "time": 62,
          "velocity": 0.6299212598425197
        },
        {
          "duration": 0.14875000000000682,
          "durationTicks": 119,
          "midi": 66,
          "name": "F#4",
          "ticks": 52320,
          "time": 65.3,
          "velocity": 0.6299212598425197
        },
        {
          "duration": 0.1487499999999926,
          "durationTicks": 119,
          "midi": 66,
          "name": "F#4",
          "ticks": 52440,
          "time": 65.45,
          "velocity": 0.6299212598425197
        },
        {
          "duration": 0.2987499999999983,
          "durationTicks": 239,
          "midi": 66,
          "name": "F#4",
          "ticks": 52560,
          "time": 65.6,
          "velocity": 0.6299212598425197
        },
        {
          "duration": 0.2987500000000125,
          "durationTicks": 239,
          "midi": 66,
          "name": "F#4",
          "ticks": 52800,
          "time": 65.89999999999999,
          "velocity": 0.6299212598425197
        },
        {
          "duration": 0.2987499999999983,
          "durationTicks": 239,
          "midi": 57,
          "name": "A3",
          "ticks": 53040,
          "time": 66.2,
          "velocity": 0.6299212598425197
        },
        {
          "duration": 0.2987499999999983,
          "durationTicks": 239,
          "midi": 57,
          "name": "A3",
          "ticks": 53280,
          "time": 66.5,
          "velocity": 0.6299212598425197
        },
        {
          "duration": 0.2987499999999983,
          "durationTicks": 239,
          "midi": 64,
          "name": "E4",
          "ticks": 53520,
          "time": 66.8,
          "velocity": 0.6299212598425197
        },
        {
          "duration": 1.198750000000004,
          "durationTicks": 959,
          "midi": 64,
          "name": "E4",
          "ticks": 53760,
          "time": 67.1,
          "velocity": 0.6299212598425197
        },
        {
          "duration": 0.2987499999999983,
          "durationTicks": 239,
          "midi": 66,
          "name": "F#4",
          "ticks": 54720,
          "time": 68.3,
          "velocity": 0.6299212598425197
        },
        {
          "duration": 0.2987499999999983,
          "durationTicks": 239,
          "midi": 66,
          "name": "F#4",
          "ticks": 54960,
          "time": 68.6,
          "velocity": 0.6299212598425197
        },
        {
          "duration": 0.2987500000000125,
          "durationTicks": 239,
          "midi": 64,
          "name": "E4",
          "ticks": 55200,
          "time": 68.89999999999999,
          "velocity": 0.6299212598425197
        },
        {
          "duration": 0.2987499999999983,
          "durationTicks": 239,
          "midi": 62,
          "name": "D4",
          "ticks": 55440,
          "time": 69.2,
          "velocity": 0.6299212598425197
        },
        {
          "duration": 0.2987499999999983,
          "durationTicks": 239,
          "midi": 67,
          "name": "G4",
          "ticks": 55680,
          "time": 69.5,
          "velocity": 0.6299212598425197
        },
        {
          "duration": 0.2987499999999983,
          "durationTicks": 239,
          "midi": 67,
          "name": "G4",
          "ticks": 55920,
          "time": 69.8,
          "velocity": 0.6299212598425197
        },
        {
          "duration": 0.2987499999999983,
          "durationTicks": 239,
          "midi": 67,
          "name": "G4",
          "ticks": 56160,
          "time": 70.1,
          "velocity": 0.6299212598425197
        },
        {
          "duration": 0.2987500000000125,
          "durationTicks": 239,
          "midi": 66,
          "name": "F#4",
          "ticks": 56400,
          "time": 70.39999999999999,
          "velocity": 0.6299212598425197
        },
        {
          "duration": 0.1487499999999926,
          "durationTicks": 119,
          "midi": 64,
          "name": "E4",
          "ticks": 56640,
          "time": 70.7,
          "velocity": 0.6299212598425197
        },
        {
          "duration": 0.448750000000004,
          "durationTicks": 359,
          "midi": 62,
          "name": "D4",
          "ticks": 56760,
          "time": 70.85,
          "velocity": 0.6299212598425197
        },
        {
          "duration": 0.2987499999999983,
          "durationTicks": 239,
          "midi": 59,
          "name": "B3",
          "ticks": 57120,
          "time": 71.3,
          "velocity": 0.6299212598425197
        },
        {
          "duration": 0.2987499999999983,
          "durationTicks": 239,
          "midi": 62,
          "name": "D4",
          "ticks": 57360,
          "time": 71.6,
          "velocity": 0.6299212598425197
        },
        {
          "duration": 0.2987500000000125,
          "durationTicks": 239,
          "midi": 64,
          "name": "E4",
          "ticks": 57600,
          "time": 71.89999999999999,
          "velocity": 0.6299212598425197
        },
        {
          "duration": 0.2987499999999983,
          "durationTicks": 239,
          "midi": 64,
          "name": "E4",
          "ticks": 57840,
          "time": 72.2,
          "velocity": 0.6299212598425197
        },
        {
          "duration": 0.2987499999999983,
          "durationTicks": 239,
          "midi": 64,
          "name": "E4",
          "ticks": 58080,
          "time": 72.5,
          "velocity": 0.6299212598425197
        },
        {
          "duration": 0.14875000000000682,
          "durationTicks": 119,
          "midi": 66,
          "name": "F#4",
          "ticks": 58320,
          "time": 72.8,
          "velocity": 0.6299212598425197
        },
        {
          "duration": 0.2987499999999983,
          "durationTicks": 239,
          "midi": 64,
          "name": "E4",
          "ticks": 58440,
          "time": 72.95,
          "velocity": 0.6299212598425197
        },
        {
          "duration": 0.448750000000004,
          "durationTicks": 359,
          "midi": 62,
          "name": "D4",
          "ticks": 58680,
          "time": 73.25,
          "velocity": 0.6299212598425197
        },
        {
          "duration": 0.14875000000000682,
          "durationTicks": 119,
          "midi": 66,
          "name": "F#4",
          "ticks": 60000,
          "time": 74.89999999999999,
          "velocity": 0.6299212598425197
        },
        {
          "duration": 0.14875000000000682,
          "durationTicks": 119,
          "midi": 66,
          "name": "F#4",
          "ticks": 60120,
          "time": 75.05,
          "velocity": 0.6299212598425197
        },
        {
          "duration": 0.2987499999999983,
          "durationTicks": 239,
          "midi": 66,
          "name": "F#4",
          "ticks": 60240,
          "time": 75.2,
          "velocity": 0.6299212598425197
        },
        {
          "duration": 0.2987499999999983,
          "durationTicks": 239,
          "midi": 69,
          "name": "A4",
          "ticks": 60480,
          "time": 75.5,
          "velocity": 0.6299212598425197
        },
        {
          "duration": 0.2987499999999983,
          "durationTicks": 239,
          "midi": 67,
          "name": "G4",
          "ticks": 60720,
          "time": 75.8,
          "velocity": 0.6299212598425197
        },
        {
          "duration": 0.2987499999999983,
          "durationTicks": 239,
          "midi": 66,
          "name": "F#4",
          "ticks": 60960,
          "time": 76.1,
          "velocity": 0.6299212598425197
        },
        {
          "duration": 0.5987500000000097,
          "durationTicks": 479,
          "midi": 64,
          "name": "E4",
          "ticks": 61200,
          "time": 76.39999999999999,
          "velocity": 0.6299212598425197
        },
        {
          "duration": 0.2987500000000125,
          "durationTicks": 239,
          "midi": 66,
          "name": "F#4",
          "ticks": 62400,
          "time": 77.89999999999999,
          "velocity": 0.6299212598425197
        },
        {
          "duration": 0.2987499999999983,
          "durationTicks": 239,
          "midi": 66,
          "name": "F#4",
          "ticks": 62640,
          "time": 78.2,
          "velocity": 0.6299212598425197
        },
        {
          "duration": 0.2987499999999983,
          "durationTicks": 239,
          "midi": 64,
          "name": "E4",
          "ticks": 62880,
          "time": 78.5,
          "velocity": 0.6299212598425197
        },
        {
          "duration": 0.2987499999999983,
          "durationTicks": 239,
          "midi": 66,
          "name": "F#4",
          "ticks": 63120,
          "time": 78.8,
          "velocity": 0.6299212598425197
        },
        {
          "duration": 0.2987499999999983,
          "durationTicks": 239,
          "midi": 67,
          "name": "G4",
          "ticks": 63360,
          "time": 79.1,
          "velocity": 0.6299212598425197
        },
        {
          "duration": 0.2987500000000125,
          "durationTicks": 239,
          "midi": 67,
          "name": "G4",
          "ticks": 63600,
          "time": 79.39999999999999,
          "velocity": 0.6299212598425197
        },
        {
          "duration": 0.2987499999999983,
          "durationTicks": 239,
          "midi": 67,
          "name": "G4",
          "ticks": 63840,
          "time": 79.7,
          "velocity": 0.6299212598425197
        },
        {
          "duration": 0.2987499999999983,
          "durationTicks": 239,
          "midi": 66,
          "name": "F#4",
          "ticks": 64080,
          "time": 80,
          "velocity": 0.6299212598425197
        },
        {
          "duration": 0.2987499999999983,
          "durationTicks": 239,
          "midi": 67,
          "name": "G4",
          "ticks": 64320,
          "time": 80.3,
          "velocity": 0.6299212598425197
        },
        {
          "duration": 0.448750000000004,
          "durationTicks": 359,
          "midi": 66,
          "name": "F#4",
          "ticks": 64560,
          "time": 80.6,
          "velocity": 0.6299212598425197
        },
        {
          "duration": 0.2987499999999983,
          "durationTicks": 239,
          "midi": 67,
          "name": "G4",
          "ticks": 65280,
          "time": 81.5,
          "velocity": 0.6299212598425197
        },
        {
          "duration": 0.2987499999999983,
          "durationTicks": 239,
          "midi": 67,
          "name": "G4",
          "ticks": 65520,
          "time": 81.8,
          "velocity": 0.6299212598425197
        },
        {
          "duration": 0.2987499999999983,
          "durationTicks": 239,
          "midi": 67,
          "name": "G4",
          "ticks": 65760,
          "time": 82.1,
          "velocity": 0.6299212598425197
        },
        {
          "duration": 0.14875000000000682,
          "durationTicks": 119,
          "midi": 64,
          "name": "E4",
          "ticks": 66000,
          "time": 82.39999999999999,
          "velocity": 0.6299212598425197
        },
        {
          "duration": 0.2987499999999983,
          "durationTicks": 239,
          "midi": 66,
          "name": "F#4",
          "ticks": 66120,
          "time": 82.55,
          "velocity": 0.6299212598425197
        },
        {
          "duration": 0.448750000000004,
          "durationTicks": 359,
          "midi": 66,
          "name": "F#4",
          "ticks": 66360,
          "time": 82.85,
          "velocity": 0.6299212598425197
        },
        {
          "duration": 0.2987499999999983,
          "durationTicks": 239,
          "midi": 62,
          "name": "D4",
          "ticks": 66720,
          "time": 83.3,
          "velocity": 0.6299212598425197
        },
        {
          "duration": 0.2987499999999983,
          "durationTicks": 239,
          "midi": 62,
          "name": "D4",
          "ticks": 66960,
          "time": 83.6,
          "velocity": 0.6299212598425197
        },
        {
          "duration": 0.2987500000000125,
          "durationTicks": 239,
          "midi": 67,
          "name": "G4",
          "ticks": 67200,
          "time": 83.89999999999999,
          "velocity": 0.6299212598425197
        },
        {
          "duration": 0.2987499999999983,
          "durationTicks": 239,
          "midi": 69,
          "name": "A4",
          "ticks": 67440,
          "time": 84.2,
          "velocity": 0.6299212598425197
        },
        {
          "duration": 0.2987499999999983,
          "durationTicks": 239,
          "midi": 71,
          "name": "B4",
          "ticks": 67680,
          "time": 84.5,
          "velocity": 0.6299212598425197
        },
        {
          "duration": 0.5987499999999955,
          "durationTicks": 479,
          "midi": 69,
          "name": "A4",
          "ticks": 67920,
          "time": 84.8,
          "velocity": 0.6299212598425197
        },
        {
          "duration": 0.2987500000000125,
          "durationTicks": 239,
          "midi": 66,
          "name": "F#4",
          "ticks": 68400,
          "time": 85.39999999999999,
          "velocity": 0.6299212598425197
        },
        {
          "duration": 0.2987499999999983,
          "durationTicks": 239,
          "midi": 62,
          "name": "D4",
          "ticks": 68640,
          "time": 85.7,
          "velocity": 0.6299212598425197
        },
        {
          "duration": 0.5987499999999955,
          "durationTicks": 479,
          "midi": 64,
          "name": "E4",
          "ticks": 68880,
          "time": 86,
          "velocity": 0.6299212598425197
        },
        {
          "duration": 0.2987499999999983,
          "durationTicks": 239,
          "midi": 66,
          "name": "F#4",
          "ticks": 69360,
          "time": 86.6,
          "velocity": 0.6299212598425197
        },
        {
          "duration": 0.2987500000000125,
          "durationTicks": 239,
          "midi": 67,
          "name": "G4",
          "ticks": 69600,
          "time": 86.89999999999999,
          "velocity": 0.6299212598425197
        },
        {
          "duration": 0.5987499999999955,
          "durationTicks": 479,
          "midi": 66,
          "name": "F#4",
          "ticks": 69840,
          "time": 87.2,
          "velocity": 0.6299212598425197
        },
        {
          "duration": 0.2987500000000125,
          "durationTicks": 239,
          "midi": 62,
          "name": "D4",
          "ticks": 70800,
          "time": 88.39999999999999,
          "velocity": 0.6299212598425197
        },
        {
          "duration": 0.2987499999999983,
          "durationTicks": 239,
          "midi": 67,
          "name": "G4",
          "ticks": 71040,
          "time": 88.7,
          "velocity": 0.6299212598425197
        },
        {
          "duration": 0.2987499999999983,
          "durationTicks": 239,
          "midi": 69,
          "name": "A4",
          "ticks": 71280,
          "time": 89,
          "velocity": 0.6299212598425197
        },
        {
          "duration": 0.2987499999999983,
          "durationTicks": 239,
          "midi": 71,
          "name": "B4",
          "ticks": 71520,
          "time": 89.3,
          "velocity": 0.6299212598425197
        },
        {
          "duration": 0.5987500000000097,
          "durationTicks": 479,
          "midi": 69,
          "name": "A4",
          "ticks": 71760,
          "time": 89.6,
          "velocity": 0.6299212598425197
        },
        {
          "duration": 0.2987499999999983,
          "durationTicks": 239,
          "midi": 66,
          "name": "F#4",
          "ticks": 72240,
          "time": 90.2,
          "velocity": 0.6299212598425197
        },
        {
          "duration": 0.2987499999999983,
          "durationTicks": 239,
          "midi": 62,
          "name": "D4",
          "ticks": 72480,
          "time": 90.5,
          "velocity": 0.6299212598425197
        },
        {
          "duration": 0.5987499999999955,
          "durationTicks": 479,
          "midi": 64,
          "name": "E4",
          "ticks": 72720,
          "time": 90.8,
          "velocity": 0.6299212598425197
        },
        {
          "duration": 0.2987500000000125,
          "durationTicks": 239,
          "midi": 66,
          "name": "F#4",
          "ticks": 73200,
          "time": 91.39999999999999,
          "velocity": 0.6299212598425197
        },
        {
          "duration": 0.2987499999999983,
          "durationTicks": 239,
          "midi": 64,
          "name": "E4",
          "ticks": 73440,
          "time": 91.7,
          "velocity": 0.6299212598425197
        },
        {
          "duration": 0.5987499999999955,
          "durationTicks": 479,
          "midi": 62,
          "name": "D4",
          "ticks": 73680,
          "time": 92,
          "velocity": 0.6299212598425197
        },
        {
          "duration": 0.2987500000000125,
          "durationTicks": 239,
          "midi": 64,
          "name": "E4",
          "ticks": 74400,
          "time": 92.89999999999999,
          "velocity": 0.6299212598425197
        },
        {
          "duration": 0.2987499999999983,
          "durationTicks": 239,
          "midi": 62,
          "name": "D4",
          "ticks": 74640,
          "time": 93.2,
          "velocity": 0.6299212598425197
        },
        {
          "duration": 0.5987499999999955,
          "durationTicks": 479,
          "midi": 59,
          "name": "B3",
          "ticks": 74880,
          "time": 93.5,
          "velocity": 0.6299212598425197
        },
        {
          "duration": 0.2987499999999983,
          "durationTicks": 239,
          "midi": 66,
          "name": "F#4",
          "ticks": 75840,
          "time": 94.7,
          "velocity": 0.6299212598425197
        },
        {
          "duration": 0.8987499999999926,
          "durationTicks": 719,
          "midi": 64,
          "name": "E4",
          "ticks": 76080,
          "time": 95,
          "velocity": 0.6299212598425197
        },
        {
          "duration": 0.2987499999999983,
          "durationTicks": 239,
          "midi": 62,
          "name": "D4",
          "ticks": 77760,
          "time": 97.1,
          "velocity": 0.6299212598425197
        },
        {
          "duration": 0.2987500000000125,
          "durationTicks": 239,
          "midi": 64,
          "name": "E4",
          "ticks": 78000,
          "time": 97.39999999999999,
          "velocity": 0.6299212598425197
        },
        {
          "duration": 0.5987499999999955,
          "durationTicks": 479,
          "midi": 62,
          "name": "D4",
          "ticks": 78240,
          "time": 97.7,
          "velocity": 0.6299212598425197
        },
        {
          "duration": 0.8987500000000068,
          "durationTicks": 719,
          "midi": 69,
          "name": "A4",
          "ticks": 78720,
          "time": 98.3,
          "velocity": 0.6299212598425197
        },
        {
          "duration": 0.5987499999999955,
          "durationTicks": 479,
          "midi": 69,
          "name": "A4",
          "ticks": 79440,
          "time": 99.2,
          "velocity": 0.6299212598425197
        },
        {
          "duration": 0.5987499999999955,
          "durationTicks": 479,
          "midi": 62,
          "name": "D4",
          "ticks": 79920,
          "time": 99.8,
          "velocity": 0.6299212598425197
        },
        {
          "duration": 0.5987500000000097,
          "durationTicks": 479,
          "midi": 64,
          "name": "E4",
          "ticks": 80400,
          "time": 100.39999999999999,
          "velocity": 0.6299212598425197
        },
        {
          "duration": 0.8987499999999926,
          "durationTicks": 719,
          "midi": 66,
          "name": "F#4",
          "ticks": 80880,
          "time": 101,
          "velocity": 0.6299212598425197
        },
        {
          "duration": 0.2987499999999983,
          "durationTicks": 239,
          "midi": 62,
          "name": "D4",
          "ticks": 82080,
          "time": 102.5,
          "velocity": 0.6299212598425197
        },
        {
          "duration": 0.2987499999999983,
          "durationTicks": 239,
          "midi": 62,
          "name": "D4",
          "ticks": 82320,
          "time": 102.8,
          "velocity": 0.6299212598425197
        },
        {
          "duration": 0.5987500000000097,
          "durationTicks": 479,
          "midi": 69,
          "name": "A4",
          "ticks": 82560,
          "time": 103.1,
          "velocity": 0.6299212598425197
        },
        {
          "duration": 0.2987499999999983,
          "durationTicks": 239,
          "midi": 69,
          "name": "A4",
          "ticks": 83040,
          "time": 103.7,
          "velocity": 0.6299212598425197
        },
        {
          "duration": 0.5987499999999955,
          "durationTicks": 479,
          "midi": 69,
          "name": "A4",
          "ticks": 83280,
          "time": 104,
          "velocity": 0.6299212598425197
        },
        {
          "duration": 0.5987500000000097,
          "durationTicks": 479,
          "midi": 62,
          "name": "D4",
          "ticks": 83760,
          "time": 104.6,
          "velocity": 0.6299212598425197
        },
        {
          "duration": 0.5987499999999955,
          "durationTicks": 479,
          "midi": 64,
          "name": "E4",
          "ticks": 84240,
          "time": 105.2,
          "velocity": 0.6299212598425197
        },
        {
          "duration": 0.5987499999999955,
          "durationTicks": 479,
          "midi": 69,
          "name": "A4",
          "ticks": 84720,
          "time": 105.8,
          "velocity": 0.6299212598425197
        },
        {
          "duration": 0.8987500000000068,
          "durationTicks": 719,
          "midi": 66,
          "name": "F#4",
          "ticks": 85200,
          "time": 106.39999999999999,
          "velocity": 0.6299212598425197
        },
        {
          "duration": 0.2987499999999983,
          "durationTicks": 239,
          "midi": 62,
          "name": "D4",
          "ticks": 85920,
          "time": 107.3,
          "velocity": 0.6299212598425197
        },
        {
          "duration": 0.2987499999999983,
          "durationTicks": 239,
          "midi": 62,
          "name": "D4",
          "ticks": 86160,
          "time": 107.6,
          "velocity": 0.6299212598425197
        },
        {
          "duration": 0.2987500000000125,
          "durationTicks": 239,
          "midi": 67,
          "name": "G4",
          "ticks": 86400,
          "time": 107.89999999999999,
          "velocity": 0.6299212598425197
        },
        {
          "duration": 0.2987499999999983,
          "durationTicks": 239,
          "midi": 69,
          "name": "A4",
          "ticks": 86640,
          "time": 108.2,
          "velocity": 0.6299212598425197
        },
        {
          "duration": 0.2987499999999983,
          "durationTicks": 239,
          "midi": 71,
          "name": "B4",
          "ticks": 86880,
          "time": 108.5,
          "velocity": 0.6299212598425197
        },
        {
          "duration": 0.5987499999999955,
          "durationTicks": 479,
          "midi": 69,
          "name": "A4",
          "ticks": 87120,
          "time": 108.8,
          "velocity": 0.6299212598425197
        },
        {
          "duration": 0.2987500000000125,
          "durationTicks": 239,
          "midi": 66,
          "name": "F#4",
          "ticks": 87600,
          "time": 109.39999999999999,
          "velocity": 0.6299212598425197
        },
        {
          "duration": 0.2987499999999983,
          "durationTicks": 239,
          "midi": 62,
          "name": "D4",
          "ticks": 87840,
          "time": 109.7,
          "velocity": 0.6299212598425197
        },
        {
          "duration": 0.5987499999999955,
          "durationTicks": 479,
          "midi": 64,
          "name": "E4",
          "ticks": 88080,
          "time": 110,
          "velocity": 0.6299212598425197
        },
        {
          "duration": 0.2987499999999983,
          "durationTicks": 239,
          "midi": 66,
          "name": "F#4",
          "ticks": 88560,
          "time": 110.6,
          "velocity": 0.6299212598425197
        },
        {
          "duration": 0.2987500000000125,
          "durationTicks": 239,
          "midi": 67,
          "name": "G4",
          "ticks": 88800,
          "time": 110.89999999999999,
          "velocity": 0.6299212598425197
        },
        {
          "duration": 0.5987499999999955,
          "durationTicks": 479,
          "midi": 66,
          "name": "F#4",
          "ticks": 89040,
          "time": 111.2,
          "velocity": 0.6299212598425197
        },
        {
          "duration": 0.5987499999999955,
          "durationTicks": 479,
          "midi": 59,
          "name": "B3",
          "ticks": 90240,
          "time": 112.7,
          "velocity": 0.6299212598425197
        },
        {
          "duration": 0.2987499999999983,
          "durationTicks": 239,
          "midi": 61,
          "name": "C#4",
          "ticks": 90720,
          "time": 113.3,
          "velocity": 0.6299212598425197
        },
        {
          "duration": 0.5987500000000097,
          "durationTicks": 479,
          "midi": 62,
          "name": "D4",
          "ticks": 90960,
          "time": 113.6,
          "velocity": 0.6299212598425197
        },
        {
          "duration": 0.8987499999999926,
          "durationTicks": 719,
          "midi": 57,
          "name": "A3",
          "ticks": 91440,
          "time": 114.2,
          "velocity": 0.6299212598425197
        },
        {
          "duration": 0.8987500000000068,
          "durationTicks": 719,
          "midi": 66,
          "name": "F#4",
          "ticks": 92160,
          "time": 115.1,
          "velocity": 0.6299212598425197
        },
        {
          "duration": 0.1487499999999926,
          "durationTicks": 119,
          "midi": 64,
          "name": "E4",
          "ticks": 92880,
          "time": 116,
          "velocity": 0.6299212598425197
        },
        {
          "duration": 0.448750000000004,
          "durationTicks": 359,
          "midi": 64,
          "name": "E4",
          "ticks": 93000,
          "time": 116.14999999999999,
          "velocity": 0.6299212598425197
        },
        {
          "duration": 0.2987499999999983,
          "durationTicks": 239,
          "midi": 62,
          "name": "D4",
          "ticks": 93360,
          "time": 116.6,
          "velocity": 0.6299212598425197
        },
        {
          "duration": 0.2987499999999983,
          "durationTicks": 239,
          "midi": 61,
          "name": "C#4",
          "ticks": 93600,
          "time": 116.89999999999999,
          "velocity": 0.6299212598425197
        },
        {
          "duration": 0.5987500000000097,
          "durationTicks": 479,
          "midi": 62,
          "name": "D4",
          "ticks": 93840,
          "time": 117.19999999999999,
          "velocity": 0.6299212598425197
        },
        {
          "duration": 0.2987499999999983,
          "durationTicks": 239,
          "midi": 62,
          "name": "D4",
          "ticks": 95520,
          "time": 119.3,
          "velocity": 0.6299212598425197
        },
        {
          "duration": 0.2987499999999983,
          "durationTicks": 239,
          "midi": 62,
          "name": "D4",
          "ticks": 95760,
          "time": 119.6,
          "velocity": 0.6299212598425197
        },
        {
          "duration": 0.2987499999999983,
          "durationTicks": 239,
          "midi": 64,
          "name": "E4",
          "ticks": 96000,
          "time": 119.89999999999999,
          "velocity": 0.6299212598425197
        },
        {
          "duration": 0.2987500000000125,
          "durationTicks": 239,
          "midi": 64,
          "name": "E4",
          "ticks": 96240,
          "time": 120.19999999999999,
          "velocity": 0.6299212598425197
        },
        {
          "duration": 0.2987499999999983,
          "durationTicks": 239,
          "midi": 64,
          "name": "E4",
          "ticks": 96480,
          "time": 120.5,
          "velocity": 0.6299212598425197
        },
        {
          "duration": 0.1487499999999926,
          "durationTicks": 119,
          "midi": 66,
          "name": "F#4",
          "ticks": 96720,
          "time": 120.8,
          "velocity": 0.6299212598425197
        },
        {
          "duration": 0.448750000000004,
          "durationTicks": 359,
          "midi": 64,
          "name": "E4",
          "ticks": 96840,
          "time": 120.94999999999999,
          "velocity": 0.6299212598425197
        },
        {
          "duration": 0.5987500000000097,
          "durationTicks": 479,
          "midi": 62,
          "name": "D4",
          "ticks": 97200,
          "time": 121.39999999999999,
          "velocity": 0.6299212598425197
        },
        {
          "duration": 0.2987499999999983,
          "durationTicks": 239,
          "midi": 62,
          "name": "D4",
          "ticks": 97680,
          "time": 122,
          "velocity": 0.6299212598425197
        },
        {
          "duration": 0.2987499999999983,
          "durationTicks": 239,
          "midi": 67,
          "name": "G4",
          "ticks": 97920,
          "time": 122.3,
          "velocity": 0.6299212598425197
        },
        {
          "duration": 0.2987499999999983,
          "durationTicks": 239,
          "midi": 66,
          "name": "F#4",
          "ticks": 98160,
          "time": 122.6,
          "velocity": 0.6299212598425197
        },
        {
          "duration": 0.2987499999999983,
          "durationTicks": 239,
          "midi": 67,
          "name": "G4",
          "ticks": 98400,
          "time": 122.89999999999999,
          "velocity": 0.6299212598425197
        },
        {
          "duration": 0.2987500000000125,
          "durationTicks": 239,
          "midi": 66,
          "name": "F#4",
          "ticks": 98640,
          "time": 123.19999999999999,
          "velocity": 0.6299212598425197
        },
        {
          "duration": 0.2987499999999983,
          "durationTicks": 239,
          "midi": 67,
          "name": "G4",
          "ticks": 98880,
          "time": 123.5,
          "velocity": 0.6299212598425197
        },
        {
          "duration": 0.2987499999999983,
          "durationTicks": 239,
          "midi": 66,
          "name": "F#4",
          "ticks": 99120,
          "time": 123.8,
          "velocity": 0.6299212598425197
        },
        {
          "duration": 0.2987499999999983,
          "durationTicks": 239,
          "midi": 62,
          "name": "D4",
          "ticks": 99360,
          "time": 124.1,
          "velocity": 0.6299212598425197
        },
        {
          "duration": 0.2987499999999983,
          "durationTicks": 239,
          "midi": 62,
          "name": "D4",
          "ticks": 99600,
          "time": 124.39999999999999,
          "velocity": 0.6299212598425197
        },
        {
          "duration": 0.2987499999999983,
          "durationTicks": 239,
          "midi": 62,
          "name": "D4",
          "ticks": 100320,
          "time": 125.3,
          "velocity": 0.6299212598425197
        },
        {
          "duration": 0.2987499999999983,
          "durationTicks": 239,
          "midi": 62,
          "name": "D4",
          "ticks": 100560,
          "time": 125.6,
          "velocity": 0.6299212598425197
        },
        {
          "duration": 0.2987499999999983,
          "durationTicks": 239,
          "midi": 69,
          "name": "A4",
          "ticks": 100800,
          "time": 125.89999999999999,
          "velocity": 0.6299212598425197
        },
        {
          "duration": 0.2987500000000125,
          "durationTicks": 239,
          "midi": 67,
          "name": "G4",
          "ticks": 101040,
          "time": 126.19999999999999,
          "velocity": 0.6299212598425197
        },
        {
          "duration": 0.5987499999999955,
          "durationTicks": 479,
          "midi": 65,
          "name": "F4",
          "ticks": 101280,
          "time": 126.5,
          "velocity": 0.6299212598425197
        },
        {
          "duration": 0.2987499999999983,
          "durationTicks": 239,
          "midi": 64,
          "name": "E4",
          "ticks": 101760,
          "time": 127.1,
          "velocity": 0.6299212598425197
        },
        {
          "duration": 0.5987500000000097,
          "durationTicks": 479,
          "midi": 67,
          "name": "G4",
          "ticks": 102000,
          "time": 127.39999999999999,
          "velocity": 0.6299212598425197
        },
        {
          "duration": 0.2987499999999841,
          "durationTicks": 239,
          "midi": 65,
          "name": "F4",
          "ticks": 102480,
          "time": 128,
          "velocity": 0.6299212598425197
        },
        {
          "duration": 0.5987499999999955,
          "durationTicks": 479,
          "midi": 64,
          "name": "E4",
          "ticks": 102720,
          "time": 128.3,
          "velocity": 0.6299212598425197
        },
        {
          "duration": 0.5987499999999955,
          "durationTicks": 479,
          "midi": 62,
          "name": "D4",
          "ticks": 103200,
          "time": 128.9,
          "velocity": 0.6299212598425197
        },
        {
          "duration": 0.14875000000000682,
          "durationTicks": 119,
          "midi": 64,
          "name": "E4",
          "ticks": 103680,
          "time": 129.5,
          "velocity": 0.6299212598425197
        },
        {
          "duration": 0.1487499999999784,
          "durationTicks": 119,
          "midi": 62,
          "name": "D4",
          "ticks": 103800,
          "time": 129.65,
          "velocity": 0.6299212598425197
        },
        {
          "duration": 1.1987500000000182,
          "durationTicks": 959,
          "midi": 64,
          "name": "E4",
          "ticks": 103920,
          "time": 129.79999999999998,
          "velocity": 0.6299212598425197
        },
        {
          "duration": 0.2987499999999841,
          "durationTicks": 239,
          "midi": 62,
          "name": "D4",
          "ticks": 106800,
          "time": 133.4,
          "velocity": 0.6299212598425197
        },
        {
          "duration": 0.2987500000000125,
          "durationTicks": 239,
          "midi": 62,
          "name": "D4",
          "ticks": 107040,
          "time": 133.7,
          "velocity": 0.6299212598425197
        },
        {
          "duration": 0.2987499999999841,
          "durationTicks": 239,
          "midi": 62,
          "name": "D4",
          "ticks": 107280,
          "time": 134,
          "velocity": 0.6299212598425197
        },
        {
          "duration": 0.2987500000000125,
          "durationTicks": 239,
          "midi": 67,
          "name": "G4",
          "ticks": 107520,
          "time": 134.29999999999998,
          "velocity": 0.6299212598425197
        },
        {
          "duration": 0.2987500000000125,
          "durationTicks": 239,
          "midi": 69,
          "name": "A4",
          "ticks": 107760,
          "time": 134.6,
          "velocity": 0.6299212598425197
        },
        {
          "duration": 0.2987499999999841,
          "durationTicks": 239,
          "midi": 71,
          "name": "B4",
          "ticks": 108000,
          "time": 134.9,
          "velocity": 0.6299212598425197
        },
        {
          "duration": 0.8987500000000068,
          "durationTicks": 719,
          "midi": 69,
          "name": "A4",
          "ticks": 108240,
          "time": 135.2,
          "velocity": 0.6299212598425197
        },
        {
          "duration": 0.2987500000000125,
          "durationTicks": 239,
          "midi": 62,
          "name": "D4",
          "ticks": 108960,
          "time": 136.1,
          "velocity": 0.6299212598425197
        },
        {
          "duration": 0.5987499999999955,
          "durationTicks": 479,
          "midi": 64,
          "name": "E4",
          "ticks": 109200,
          "time": 136.4,
          "velocity": 0.6299212598425197
        },
        {
          "duration": 0.2987499999999841,
          "durationTicks": 239,
          "midi": 66,
          "name": "F#4",
          "ticks": 109680,
          "time": 137,
          "velocity": 0.6299212598425197
        },
        {
          "duration": 0.2987500000000125,
          "durationTicks": 239,
          "midi": 67,
          "name": "G4",
          "ticks": 109920,
          "time": 137.29999999999998,
          "velocity": 0.6299212598425197
        },
        {
          "duration": 0.8987500000000068,
          "durationTicks": 719,
          "midi": 66,
          "name": "F#4",
          "ticks": 110160,
          "time": 137.6,
          "velocity": 0.6299212598425197
        },
        {
          "duration": 0.2987500000000125,
          "durationTicks": 239,
          "midi": 62,
          "name": "D4",
          "ticks": 111120,
          "time": 138.79999999999998,
          "velocity": 0.6299212598425197
        },
        {
          "duration": 0.2987500000000125,
          "durationTicks": 239,
          "midi": 67,
          "name": "G4",
          "ticks": 111360,
          "time": 139.1,
          "velocity": 0.6299212598425197
        },
        {
          "duration": 0.2987499999999841,
          "durationTicks": 239,
          "midi": 69,
          "name": "A4",
          "ticks": 111600,
          "time": 139.4,
          "velocity": 0.6299212598425197
        },
        {
          "duration": 0.2987500000000125,
          "durationTicks": 239,
          "midi": 71,
          "name": "B4",
          "ticks": 111840,
          "time": 139.7,
          "velocity": 0.6299212598425197
        },
        {
          "duration": 0.5987499999999955,
          "durationTicks": 479,
          "midi": 69,
          "name": "A4",
          "ticks": 112080,
          "time": 140,
          "velocity": 0.6299212598425197
        },
        {
          "duration": 0.2987500000000125,
          "durationTicks": 239,
          "midi": 66,
          "name": "F#4",
          "ticks": 112560,
          "time": 140.6,
          "velocity": 0.6299212598425197
        },
        {
          "duration": 0.2987499999999841,
          "durationTicks": 239,
          "midi": 62,
          "name": "D4",
          "ticks": 112800,
          "time": 140.9,
          "velocity": 0.6299212598425197
        },
        {
          "duration": 0.5987499999999955,
          "durationTicks": 479,
          "midi": 64,
          "name": "E4",
          "ticks": 113040,
          "time": 141.2,
          "velocity": 0.6299212598425197
        },
        {
          "duration": 0.2987500000000125,
          "durationTicks": 239,
          "midi": 66,
          "name": "F#4",
          "ticks": 113520,
          "time": 141.79999999999998,
          "velocity": 0.6299212598425197
        },
        {
          "duration": 0.2987500000000125,
          "durationTicks": 239,
          "midi": 64,
          "name": "E4",
          "ticks": 113760,
          "time": 142.1,
          "velocity": 0.6299212598425197
        },
        {
          "duration": 0.8987499999999784,
          "durationTicks": 719,
          "midi": 62,
          "name": "D4",
          "ticks": 114000,
          "time": 142.4,
          "velocity": 0.6299212598425197
        },
        {
          "duration": 0.2987500000000125,
          "durationTicks": 239,
          "midi": 62,
          "name": "D4",
          "ticks": 114960,
          "time": 143.6,
          "velocity": 0.6299212598425197
        },
        {
          "duration": 0.2987499999999841,
          "durationTicks": 239,
          "midi": 67,
          "name": "G4",
          "ticks": 115200,
          "time": 143.9,
          "velocity": 0.6299212598425197
        },
        {
          "duration": 0.2987500000000125,
          "durationTicks": 239,
          "midi": 69,
          "name": "A4",
          "ticks": 115440,
          "time": 144.2,
          "velocity": 0.6299212598425197
        },
        {
          "duration": 0.2987499999999841,
          "durationTicks": 239,
          "midi": 71,
          "name": "B4",
          "ticks": 115680,
          "time": 144.5,
          "velocity": 0.6299212598425197
        },
        {
          "duration": 0.5987500000000239,
          "durationTicks": 479,
          "midi": 69,
          "name": "A4",
          "ticks": 115920,
          "time": 144.79999999999998,
          "velocity": 0.6299212598425197
        },
        {
          "duration": 0.2987499999999841,
          "durationTicks": 239,
          "midi": 66,
          "name": "F#4",
          "ticks": 116400,
          "time": 145.4,
          "velocity": 0.6299212598425197
        },
        {
          "duration": 0.2987500000000125,
          "durationTicks": 239,
          "midi": 62,
          "name": "D4",
          "ticks": 116640,
          "time": 145.7,
          "velocity": 0.6299212598425197
        },
        {
          "duration": 0.5987499999999955,
          "durationTicks": 479,
          "midi": 64,
          "name": "E4",
          "ticks": 116880,
          "time": 146,
          "velocity": 0.6299212598425197
        },
        {
          "duration": 0.2987500000000125,
          "durationTicks": 239,
          "midi": 66,
          "name": "F#4",
          "ticks": 117360,
          "time": 146.6,
          "velocity": 0.6299212598425197
        },
        {
          "duration": 0.2987499999999841,
          "durationTicks": 239,
          "midi": 67,
          "name": "G4",
          "ticks": 117600,
          "time": 146.9,
          "velocity": 0.6299212598425197
        },
        {
          "duration": 1.4987500000000011,
          "durationTicks": 1199,
          "midi": 66,
          "name": "F#4",
          "ticks": 117840,
          "time": 147.2,
          "velocity": 0.6299212598425197
        },
        {
          "duration": 0.2987500000000125,
          "durationTicks": 239,
          "midi": 64,
          "name": "E4",
          "ticks": 119520,
          "time": 149.29999999999998,
          "velocity": 0.6299212598425197
        },
        {
          "duration": 0.2987500000000125,
          "durationTicks": 239,
          "midi": 62,
          "name": "D4",
          "ticks": 119760,
          "time": 149.6,
          "velocity": 0.6299212598425197
        },
        {
          "duration": 0.5987499999999955,
          "durationTicks": 479,
          "midi": 59,
          "name": "B3",
          "ticks": 120000,
          "time": 149.9,
          "velocity": 0.6299212598425197
        },
        {
          "duration": 0.2987500000000125,
          "durationTicks": 239,
          "midi": 66,
          "name": "F#4",
          "ticks": 120960,
          "time": 151.1,
          "velocity": 0.6299212598425197
        },
        {
          "duration": 1.4987500000000011,
          "durationTicks": 1199,
          "midi": 64,
          "name": "E4",
          "ticks": 121200,
          "time": 151.4,
          "velocity": 0.6299212598425197
        },
        {
          "duration": 0.2987499999999841,
          "durationTicks": 239,
          "midi": 64,
          "name": "E4",
          "ticks": 123840,
          "time": 154.7,
          "velocity": 0.6299212598425197
        },
        {
          "duration": 0.2987499999999841,
          "durationTicks": 239,
          "midi": 66,
          "name": "F#4",
          "ticks": 124080,
          "time": 155,
          "velocity": 0.6299212598425197
        },
        {
          "duration": 0.5987499999999955,
          "durationTicks": 479,
          "midi": 64,
          "name": "E4",
          "ticks": 124320,
          "time": 155.29999999999998,
          "velocity": 0.6299212598425197
        },
        {
          "duration": 0.8987499999999784,
          "durationTicks": 719,
          "midi": 64,
          "name": "E4",
          "ticks": 124800,
          "time": 155.9,
          "velocity": 0.6299212598425197
        },
        {
          "duration": 0.5987499999999955,
          "durationTicks": 479,
          "midi": 64,
          "name": "E4",
          "ticks": 125520,
          "time": 156.79999999999998,
          "velocity": 0.6299212598425197
        },
        {
          "duration": 0.598749999999967,
          "durationTicks": 479,
          "midi": 64,
          "name": "E4",
          "ticks": 126000,
          "time": 157.4,
          "velocity": 0.6299212598425197
        },
        {
          "duration": 0.598749999999967,
          "durationTicks": 479,
          "midi": 66,
          "name": "F#4",
          "ticks": 126480,
          "time": 158,
          "velocity": 0.6299212598425197
        },
        {
          "duration": 0.8987499999999784,
          "durationTicks": 719,
          "midi": 68,
          "name": "G#4",
          "ticks": 126960,
          "time": 158.6,
          "velocity": 0.6299212598425197
        },
        {
          "duration": 0.2987499999999841,
          "durationTicks": 239,
          "midi": 64,
          "name": "E4",
          "ticks": 128160,
          "time": 160.1,
          "velocity": 0.6299212598425197
        },
        {
          "duration": 0.2987499999999841,
          "durationTicks": 239,
          "midi": 64,
          "name": "E4",
          "ticks": 128400,
          "time": 160.4,
          "velocity": 0.6299212598425197
        },
        {
          "duration": 0.5987499999999955,
          "durationTicks": 479,
          "midi": 71,
          "name": "B4",
          "ticks": 128640,
          "time": 160.7,
          "velocity": 0.6299212598425197
        },
        {
          "duration": 0.2987499999999841,
          "durationTicks": 239,
          "midi": 71,
          "name": "B4",
          "ticks": 129120,
          "time": 161.29999999999998,
          "velocity": 0.6299212598425197
        },
        {
          "duration": 0.5987499999999955,
          "durationTicks": 479,
          "midi": 71,
          "name": "B4",
          "ticks": 129360,
          "time": 161.6,
          "velocity": 0.6299212598425197
        },
        {
          "duration": 0.5987499999999955,
          "durationTicks": 479,
          "midi": 64,
          "name": "E4",
          "ticks": 129840,
          "time": 162.2,
          "velocity": 0.6299212598425197
        },
        {
          "duration": 0.5987499999999955,
          "durationTicks": 479,
          "midi": 66,
          "name": "F#4",
          "ticks": 130320,
          "time": 162.79999999999998,
          "velocity": 0.6299212598425197
        },
        {
          "duration": 0.598749999999967,
          "durationTicks": 479,
          "midi": 71,
          "name": "B4",
          "ticks": 130800,
          "time": 163.4,
          "velocity": 0.6299212598425197
        },
        {
          "duration": 0.2987499999999841,
          "durationTicks": 239,
          "midi": 68,
          "name": "G#4",
          "ticks": 131280,
          "time": 164,
          "velocity": 0.6299212598425197
        },
        {
          "duration": 0.2987499999999841,
          "durationTicks": 239,
          "midi": 68,
          "name": "G#4",
          "ticks": 131520,
          "time": 164.29999999999998,
          "velocity": 0.6299212598425197
        },
        {
          "duration": 0.2987499999999841,
          "durationTicks": 239,
          "midi": 64,
          "name": "E4",
          "ticks": 132000,
          "time": 164.9,
          "velocity": 0.6299212598425197
        },
        {
          "duration": 0.2987499999999841,
          "durationTicks": 239,
          "midi": 64,
          "name": "E4",
          "ticks": 132240,
          "time": 165.2,
          "velocity": 0.6299212598425197
        },
        {
          "duration": 0.2987499999999841,
          "durationTicks": 239,
          "midi": 69,
          "name": "A4",
          "ticks": 132480,
          "time": 165.5,
          "velocity": 0.6299212598425197
        },
        {
          "duration": 0.2987499999999841,
          "durationTicks": 239,
          "midi": 71,
          "name": "B4",
          "ticks": 132720,
          "time": 165.79999999999998,
          "velocity": 0.6299212598425197
        },
        {
          "duration": 0.2987499999999841,
          "durationTicks": 239,
          "midi": 73,
          "name": "C#5",
          "ticks": 132960,
          "time": 166.1,
          "velocity": 0.6299212598425197
        },
        {
          "duration": 0.598749999999967,
          "durationTicks": 479,
          "midi": 68,
          "name": "G#4",
          "ticks": 133200,
          "time": 166.4,
          "velocity": 0.6299212598425197
        },
        {
          "duration": 0.2987499999999841,
          "durationTicks": 239,
          "midi": 68,
          "name": "G#4",
          "ticks": 133680,
          "time": 167,
          "velocity": 0.6299212598425197
        },
        {
          "duration": 0.2987499999999841,
          "durationTicks": 239,
          "midi": 64,
          "name": "E4",
          "ticks": 133920,
          "time": 167.29999999999998,
          "velocity": 0.6299212598425197
        },
        {
          "duration": 0.5987499999999955,
          "durationTicks": 479,
          "midi": 66,
          "name": "F#4",
          "ticks": 134160,
          "time": 167.6,
          "velocity": 0.6299212598425197
        },
        {
          "duration": 0.2987499999999841,
          "durationTicks": 239,
          "midi": 68,
          "name": "G#4",
          "ticks": 134640,
          "time": 168.2,
          "velocity": 0.6299212598425197
        },
        {
          "duration": 0.2987499999999841,
          "durationTicks": 239,
          "midi": 69,
          "name": "A4",
          "ticks": 134880,
          "time": 168.5,
          "velocity": 0.6299212598425197
        },
        {
          "duration": 0.5987499999999955,
          "durationTicks": 479,
          "midi": 68,
          "name": "G#4",
          "ticks": 135120,
          "time": 168.79999999999998,
          "velocity": 0.6299212598425197
        },
        {
          "duration": 0.5987499999999955,
          "durationTicks": 479,
          "midi": 61,
          "name": "C#4",
          "ticks": 136320,
          "time": 170.29999999999998,
          "velocity": 0.6299212598425197
        },
        {
          "duration": 0.2987499999999841,
          "durationTicks": 239,
          "midi": 63,
          "name": "D#4",
          "ticks": 136800,
          "time": 170.9,
          "velocity": 0.6299212598425197
        },
        {
          "duration": 0.5987499999999955,
          "durationTicks": 479,
          "midi": 64,
          "name": "E4",
          "ticks": 137040,
          "time": 171.2,
          "velocity": 0.6299212598425197
        },
        {
          "duration": 0.8987500000000068,
          "durationTicks": 719,
          "midi": 59,
          "name": "B3",
          "ticks": 137520,
          "time": 171.79999999999998,
          "velocity": 0.6299212598425197
        },
        {
          "duration": 0.8987499999999784,
          "durationTicks": 719,
          "midi": 64,
          "name": "E4",
          "ticks": 138240,
          "time": 172.7,
          "velocity": 0.6299212598425197
        },
        {
          "duration": 0.1487499999999784,
          "durationTicks": 119,
          "midi": 63,
          "name": "D#4",
          "ticks": 138960,
          "time": 173.6,
          "velocity": 0.6299212598425197
        },
        {
          "duration": 0.44874999999998977,
          "durationTicks": 359,
          "midi": 63,
          "name": "D#4",
          "ticks": 139080,
          "time": 173.75,
          "velocity": 0.6299212598425197
        },
        {
          "duration": 0.2987499999999841,
          "durationTicks": 239,
          "midi": 64,
          "name": "E4",
          "ticks": 139440,
          "time": 174.2,
          "velocity": 0.6299212598425197
        },
        {
          "duration": 0.2987499999999841,
          "durationTicks": 239,
          "midi": 63,
          "name": "D#4",
          "ticks": 139680,
          "time": 174.5,
          "velocity": 0.6299212598425197
        },
        {
          "duration": 0.5987499999999955,
          "durationTicks": 479,
          "midi": 64,
          "name": "E4",
          "ticks": 139920,
          "time": 174.79999999999998,
          "velocity": 0.6299212598425197
        }
      ],
      "endOfTrackTicks": 142081
    },
    {
      "channel": 1,
      "controlChanges": {
        "6": [
          {
            "number": 6,
            "ticks": 0,
            "time": 0,
            "value": 0.09448818897637795
          }
        ],
        "7": [
          {
            "number": 7,
            "ticks": 0,
            "time": 0,
            "value": 0.7874015748031497
          }
        ],
        "10": [
          {
            "number": 10,
            "ticks": 0,
            "time": 0,
            "value": 0.5039370078740157
          }
        ],
        "91": [
          {
            "number": 91,
            "ticks": 0,
            "time": 0,
            "value": 0
          }
        ],
        "93": [
          {
            "number": 93,
            "ticks": 0,
            "time": 0,
            "value": 0
          }
        ],
        "100": [
          {
            "number": 100,
            "ticks": 0,
            "time": 0,
            "value": 0
          },
          {
            "number": 100,
            "ticks": 0,
            "time": 0,
            "value": 1
          }
        ],
        "101": [
          {
            "number": 101,
            "ticks": 0,
            "time": 0,
            "value": 0
          },
          {
            "number": 101,
            "ticks": 0,
            "time": 0,
            "value": 1
          }
        ],
        "121": [
          {
            "number": 121,
            "ticks": 0,
            "time": 0,
            "value": 0
          }
        ]
      },
      "pitchBends": [],
      "instrument": {
        "family": "piano",
        "number": 0,
        "name": "acoustic grand piano"
      },
      "name": "",
      "notes": [
        {
          "duration": 1.7999999999999998,
          "durationTicks": 1440,
          "midi": 38,
          "name": "D2",
          "ticks": 480,
          "time": 0.5,
          "velocity": 0.6299212598425197
        },
        {
          "duration": 1.7999999999999998,
          "durationTicks": 1440,
          "midi": 62,
          "name": "D4",
          "ticks": 480,
          "time": 0.5,
          "velocity": 0.6299212598425197
        },
        {
          "duration": 1.7999999999999998,
          "durationTicks": 1440,
          "midi": 66,
          "name": "F#4",
          "ticks": 480,
          "time": 0.5,
          "velocity": 0.6299212598425197
        },
        {
          "duration": 1.7999999999999998,
          "durationTicks": 1440,
          "midi": 69,
          "name": "A4",
          "ticks": 480,
          "time": 0.5,
          "velocity": 0.6299212598425197
        },
        {
          "duration": 2.4000000000000004,
          "durationTicks": 1920,
          "midi": 45,
          "name": "A2",
          "ticks": 1920,
          "time": 2.3,
          "velocity": 0.6299212598425197
        },
        {
          "duration": 2.4000000000000004,
          "durationTicks": 1920,
          "midi": 61,
          "name": "C#4",
          "ticks": 1920,
          "time": 2.3,
          "velocity": 0.6299212598425197
        },
        {
          "duration": 2.4000000000000004,
          "durationTicks": 1920,
          "midi": 64,
          "name": "E4",
          "ticks": 1920,
          "time": 2.3,
          "velocity": 0.6299212598425197
        },
        {
          "duration": 2.4000000000000004,
          "durationTicks": 1920,
          "midi": 69,
          "name": "A4",
          "ticks": 1920,
          "time": 2.3,
          "velocity": 0.6299212598425197
        },
        {
          "duration": 2.3999999999999995,
          "durationTicks": 1920,
          "midi": 36,
          "name": "C2",
          "ticks": 3840,
          "time": 4.7,
          "velocity": 0.6299212598425197
        },
        {
          "duration": 2.3999999999999995,
          "durationTicks": 1920,
          "midi": 60,
          "name": "C4",
          "ticks": 3840,
          "time": 4.7,
          "velocity": 0.6299212598425197
        },
        {
          "duration": 2.3999999999999995,
          "durationTicks": 1920,
          "midi": 64,
          "name": "E4",
          "ticks": 3840,
          "time": 4.7,
          "velocity": 0.6299212598425197
        },
        {
          "duration": 2.3999999999999995,
          "durationTicks": 1920,
          "midi": 67,
          "name": "G4",
          "ticks": 3840,
          "time": 4.7,
          "velocity": 0.6299212598425197
        },
        {
          "duration": 3,
          "durationTicks": 2400,
          "midi": 38,
          "name": "D2",
          "ticks": 5760,
          "time": 7.1,
          "velocity": 0.6299212598425197
        },
        {
          "duration": 3,
          "durationTicks": 2400,
          "midi": 62,
          "name": "D4",
          "ticks": 5760,
          "time": 7.1,
          "velocity": 0.6299212598425197
        },
        {
          "duration": 3,
          "durationTicks": 2400,
          "midi": 66,
          "name": "F#4",
          "ticks": 5760,
          "time": 7.1,
          "velocity": 0.6299212598425197
        },
        {
          "duration": 3,
          "durationTicks": 2400,
          "midi": 69,
          "name": "A4",
          "ticks": 5760,
          "time": 7.1,
          "velocity": 0.6299212598425197
        },
        {
          "duration": 1.8000000000000007,
          "durationTicks": 1440,
          "midi": 38,
          "name": "D2",
          "ticks": 8160,
          "time": 10.1,
          "velocity": 0.6299212598425197
        },
        {
          "duration": 1.8000000000000007,
          "durationTicks": 1440,
          "midi": 62,
          "name": "D4",
          "ticks": 8160,
          "time": 10.1,
          "velocity": 0.6299212598425197
        },
        {
          "duration": 1.8000000000000007,
          "durationTicks": 1440,
          "midi": 66,
          "name": "F#4",
          "ticks": 8160,
          "time": 10.1,
          "velocity": 0.6299212598425197
        },
        {
          "duration": 1.8000000000000007,
          "durationTicks": 1440,
          "midi": 69,
          "name": "A4",
          "ticks": 8160,
          "time": 10.1,
          "velocity": 0.6299212598425197
        },
        {
          "duration": 2.3999999999999986,
          "durationTicks": 1920,
          "midi": 45,
          "name": "A2",
          "ticks": 9600,
          "time": 11.9,
          "velocity": 0.6299212598425197
        },
        {
          "duration": 2.3999999999999986,
          "durationTicks": 1920,
          "midi": 61,
          "name": "C#4",
          "ticks": 9600,
          "time": 11.9,
          "velocity": 0.6299212598425197
        },
        {
          "duration": 2.3999999999999986,
          "durationTicks": 1920,
          "midi": 64,
          "name": "E4",
          "ticks": 9600,
          "time": 11.9,
          "velocity": 0.6299212598425197
        },
        {
          "duration": 2.3999999999999986,
          "durationTicks": 1920,
          "midi": 69,
          "name": "A4",
          "ticks": 9600,
          "time": 11.9,
          "velocity": 0.6299212598425197
        },
        {
          "duration": 2.4000000000000004,
          "durationTicks": 1920,
          "midi": 36,
          "name": "C2",
          "ticks": 11520,
          "time": 14.299999999999999,
          "velocity": 0.6299212598425197
        },
        {
          "duration": 2.4000000000000004,
          "durationTicks": 1920,
          "midi": 60,
          "name": "C4",
          "ticks": 11520,
          "time": 14.299999999999999,
          "velocity": 0.6299212598425197
        },
        {
          "duration": 2.4000000000000004,
          "durationTicks": 1920,
          "midi": 64,
          "name": "E4",
          "ticks": 11520,
          "time": 14.299999999999999,
          "velocity": 0.6299212598425197
        },
        {
          "duration": 2.4000000000000004,
          "durationTicks": 1920,
          "midi": 67,
          "name": "G4",
          "ticks": 11520,
          "time": 14.299999999999999,
          "velocity": 0.6299212598425197
        },
        {
          "duration": 4.800000000000001,
          "durationTicks": 3840,
          "midi": 43,
          "name": "G2",
          "ticks": 13440,
          "time": 16.7,
          "velocity": 0.6299212598425197
        },
        {
          "duration": 4.800000000000001,
          "durationTicks": 3840,
          "midi": 62,
          "name": "D4",
          "ticks": 13440,
          "time": 16.7,
          "velocity": 0.6299212598425197
        },
        {
          "duration": 4.800000000000001,
          "durationTicks": 3840,
          "midi": 67,
          "name": "G4",
          "ticks": 13440,
          "time": 16.7,
          "velocity": 0.6299212598425197
        },
        {
          "duration": 4.800000000000001,
          "durationTicks": 3840,
          "midi": 71,
          "name": "B4",
          "ticks": 13440,
          "time": 16.7,
          "velocity": 0.6299212598425197
        },
        {
          "duration": 0.8999999999999986,
          "durationTicks": 720,
          "midi": 43,
          "name": "G2",
          "ticks": 17280,
          "time": 21.5,
          "velocity": 0.6299212598425197
        },
        {
          "duration": 0.8999999999999986,
          "durationTicks": 720,
          "midi": 62,
          "name": "D4",
          "ticks": 17280,
          "time": 21.5,
          "velocity": 0.6299212598425197
        },
        {
          "duration": 0.8999999999999986,
          "durationTicks": 720,
          "midi": 67,
          "name": "G4",
          "ticks": 17280,
          "time": 21.5,
          "velocity": 0.6299212598425197
        },
        {
          "duration": 0.8999999999999986,
          "durationTicks": 720,
          "midi": 71,
          "name": "B4",
          "ticks": 17280,
          "time": 21.5,
          "velocity": 0.6299212598425197
        },
        {
          "duration": 1.5,
          "durationTicks": 1200,
          "midi": 38,
          "name": "D2",
          "ticks": 18000,
          "time": 22.4,
          "velocity": 0.6299212598425197
        },
        {
          "duration": 1.5,
          "durationTicks": 1200,
          "midi": 62,
          "name": "D4",
          "ticks": 18000,
          "time": 22.4,
          "velocity": 0.6299212598425197
        },
        {
          "duration": 1.5,
          "durationTicks": 1200,
          "midi": 66,
          "name": "F#4",
          "ticks": 18000,
          "time": 22.4,
          "velocity": 0.6299212598425197
        },
        {
          "duration": 1.5,
          "durationTicks": 1200,
          "midi": 69,
          "name": "A4",
          "ticks": 18000,
          "time": 22.4,
          "velocity": 0.6299212598425197
        },
        {
          "duration": 2.400000000000002,
          "durationTicks": 1920,
          "midi": 45,
          "name": "A2",
          "ticks": 19200,
          "time": 23.9,
          "velocity": 0.6299212598425197
        },
        {
          "duration": 2.400000000000002,
          "durationTicks": 1920,
          "midi": 61,
          "name": "C#4",
          "ticks": 19200,
          "time": 23.9,
          "velocity": 0.6299212598425197
        },
        {
          "duration": 2.400000000000002,
          "durationTicks": 1920,
          "midi": 64,
          "name": "E4",
          "ticks": 19200,
          "time": 23.9,
          "velocity": 0.6299212598425197
        },
        {
          "duration": 2.400000000000002,
          "durationTicks": 1920,
          "midi": 69,
          "name": "A4",
          "ticks": 19200,
          "time": 23.9,
          "velocity": 0.6299212598425197
        },
        {
          "duration": 0.8999999999999986,
          "durationTicks": 720,
          "midi": 43,
          "name": "G2",
          "ticks": 21120,
          "time": 26.3,
          "velocity": 0.6299212598425197
        },
        {
          "duration": 0.8999999999999986,
          "durationTicks": 720,
          "midi": 62,
          "name": "D4",
          "ticks": 21120,
          "time": 26.3,
          "velocity": 0.6299212598425197
        },
        {
          "duration": 0.8999999999999986,
          "durationTicks": 720,
          "midi": 67,
          "name": "G4",
          "ticks": 21120,
          "time": 26.3,
          "velocity": 0.6299212598425197
        },
        {
          "duration": 0.8999999999999986,
          "durationTicks": 720,
          "midi": 71,
          "name": "B4",
          "ticks": 21120,
          "time": 26.3,
          "velocity": 0.6299212598425197
        },
        {
          "duration": 1.5,
          "durationTicks": 1200,
          "midi": 38,
          "name": "D2",
          "ticks": 21840,
          "time": 27.2,
          "velocity": 0.6299212598425197
        },
        {
          "duration": 1.5,
          "durationTicks": 1200,
          "midi": 62,
          "name": "D4",
          "ticks": 21840,
          "time": 27.2,
          "velocity": 0.6299212598425197
        },
        {
          "duration": 1.5,
          "durationTicks": 1200,
          "midi": 66,
          "name": "F#4",
          "ticks": 21840,
          "time": 27.2,
          "velocity": 0.6299212598425197
        },
        {
          "duration": 1.5,
          "durationTicks": 1200,
          "midi": 69,
          "name": "A4",
          "ticks": 21840,
          "time": 27.2,
          "velocity": 0.6299212598425197
        },
        {
          "duration": 0.8999999999999986,
          "durationTicks": 720,
          "midi": 45,
          "name": "A2",
          "ticks": 23040,
          "time": 28.7,
          "velocity": 0.6299212598425197
        },
        {
          "duration": 0.8999999999999986,
          "durationTicks": 720,
          "midi": 61,
          "name": "C#4",
          "ticks": 23040,
          "time": 28.7,
          "velocity": 0.6299212598425197
        },
        {
          "duration": 0.8999999999999986,
          "durationTicks": 720,
          "midi": 64,
          "name": "E4",
          "ticks": 23040,
          "time": 28.7,
          "velocity": 0.6299212598425197
        },
        {
          "duration": 0.8999999999999986,
          "durationTicks": 720,
          "midi": 69,
          "name": "A4",
          "ticks": 23040,
          "time": 28.7,
          "velocity": 0.6299212598425197
        },
        {
          "duration": 1.5,
          "durationTicks": 1200,
          "midi": 47,
          "name": "B2",
          "ticks": 23760,
          "time": 29.599999999999998,
          "velocity": 0.6299212598425197
        },
        {
          "duration": 1.5,
          "durationTicks": 1200,
          "midi": 62,
          "name": "D4",
          "ticks": 23760,
          "time": 29.599999999999998,
          "velocity": 0.6299212598425197
        },
        {
          "duration": 1.5,
          "durationTicks": 1200,
          "midi": 66,
          "name": "F#4",
          "ticks": 23760,
          "time": 29.599999999999998,
          "velocity": 0.6299212598425197
        },
        {
          "duration": 1.5,
          "durationTicks": 1200,
          "midi": 71,
          "name": "B4",
          "ticks": 23760,
          "time": 29.599999999999998,
          "velocity": 0.6299212598425197
        },
        {
          "duration": 0.9000000000000021,
          "durationTicks": 720,
          "midi": 43,
          "name": "G2",
          "ticks": 24960,
          "time": 31.099999999999998,
          "velocity": 0.6299212598425197
        },
        {
          "duration": 0.9000000000000021,
          "durationTicks": 720,
          "midi": 62,
          "name": "D4",
          "ticks": 24960,
          "time": 31.099999999999998,
          "velocity": 0.6299212598425197
        },
        {
          "duration": 0.9000000000000021,
          "durationTicks": 720,
          "midi": 67,
          "name": "G4",
          "ticks": 24960,
          "time": 31.099999999999998,
          "velocity": 0.6299212598425197
        },
        {
          "duration": 0.9000000000000021,
          "durationTicks": 720,
          "midi": 71,
          "name": "B4",
          "ticks": 24960,
          "time": 31.099999999999998,
          "velocity": 0.6299212598425197
        },
        {
          "duration": 1.5,
          "durationTicks": 1200,
          "midi": 38,
          "name": "D2",
          "ticks": 25680,
          "time": 32,
          "velocity": 0.6299212598425197
        },
        {
          "duration": 1.5,
          "durationTicks": 1200,
          "midi": 62,
          "name": "D4",
          "ticks": 25680,
          "time": 32,
          "velocity": 0.6299212598425197
        },
        {
          "duration": 1.5,
          "durationTicks": 1200,
          "midi": 66,
          "name": "F#4",
          "ticks": 25680,
          "time": 32,
          "velocity": 0.6299212598425197
        },
        {
          "duration": 1.5,
          "durationTicks": 1200,
          "midi": 69,
          "name": "A4",
          "ticks": 25680,
          "time": 32,
          "velocity": 0.6299212598425197
        },
        {
          "duration": 0.8999999999999986,
          "durationTicks": 720,
          "midi": 45,
          "name": "A2",
          "ticks": 26880,
          "time": 33.5,
          "velocity": 0.6299212598425197
        },
        {
          "duration": 0.8999999999999986,
          "durationTicks": 720,
          "midi": 61,
          "name": "C#4",
          "ticks": 26880,
          "time": 33.5,
          "velocity": 0.6299212598425197
        },
        {
          "duration": 0.8999999999999986,
          "durationTicks": 720,
          "midi": 64,
          "name": "E4",
          "ticks": 26880,
          "time": 33.5,
          "velocity": 0.6299212598425197
        },
        {
          "duration": 0.8999999999999986,
          "durationTicks": 720,
          "midi": 69,
          "name": "A4",
          "ticks": 26880,
          "time": 33.5,
          "velocity": 0.6299212598425197
        },
        {
          "duration": 1.5,
          "durationTicks": 1200,
          "midi": 47,
          "name": "B2",
          "ticks": 27600,
          "time": 34.4,
          "velocity": 0.6299212598425197
        },
        {
          "duration": 1.5,
          "durationTicks": 1200,
          "midi": 62,
          "name": "D4",
          "ticks": 27600,
          "time": 34.4,
          "velocity": 0.6299212598425197
        },
        {
          "duration": 1.5,
          "durationTicks": 1200,
          "midi": 66,
          "name": "F#4",
          "ticks": 27600,
          "time": 34.4,
          "velocity": 0.6299212598425197
        },
        {
          "duration": 1.5,
          "durationTicks": 1200,
          "midi": 71,
          "name": "B4",
          "ticks": 27600,
          "time": 34.4,
          "velocity": 0.6299212598425197
        },
        {
          "duration": 2.3999999999999986,
          "durationTicks": 1920,
          "midi": 43,
          "name": "G2",
          "ticks": 28800,
          "time": 35.9,
          "velocity": 0.6299212598425197
        },
        {
          "duration": 2.3999999999999986,
          "durationTicks": 1920,
          "midi": 62,
          "name": "D4",
          "ticks": 28800,
          "time": 35.9,
          "velocity": 0.6299212598425197
        },
        {
          "duration": 2.3999999999999986,
          "durationTicks": 1920,
          "midi": 67,
          "name": "G4",
          "ticks": 28800,
          "time": 35.9,
          "velocity": 0.6299212598425197
        },
        {
          "duration": 2.3999999999999986,
          "durationTicks": 1920,
          "midi": 71,
          "name": "B4",
          "ticks": 28800,
          "time": 35.9,
          "velocity": 0.6299212598425197
        },
        {
          "duration": 2.3999999999999986,
          "durationTicks": 1920,
          "midi": 45,
          "name": "A2",
          "ticks": 30720,
          "time": 38.3,
          "velocity": 0.6299212598425197
        },
        {
          "duration": 2.3999999999999986,
          "durationTicks": 1920,
          "midi": 61,
          "name": "C#4",
          "ticks": 30720,
          "time": 38.3,
          "velocity": 0.6299212598425197
        },
        {
          "duration": 2.3999999999999986,
          "durationTicks": 1920,
          "midi": 64,
          "name": "E4",
          "ticks": 30720,
          "time": 38.3,
          "velocity": 0.6299212598425197
        },
        {
          "duration": 2.3999999999999986,
          "durationTicks": 1920,
          "midi": 69,
          "name": "A4",
          "ticks": 30720,
          "time": 38.3,
          "velocity": 0.6299212598425197
        },
        {
          "duration": 2.4000000000000057,
          "durationTicks": 1920,
          "midi": 45,
          "name": "A2",
          "ticks": 32640,
          "time": 40.699999999999996,
          "velocity": 0.6299212598425197
        },
        {
          "duration": 2.4000000000000057,
          "durationTicks": 1920,
          "midi": 61,
          "name": "C#4",
          "ticks": 32640,
          "time": 40.699999999999996,
          "velocity": 0.6299212598425197
        },
        {
          "duration": 2.4000000000000057,
          "durationTicks": 1920,
          "midi": 64,
          "name": "E4",
          "ticks": 32640,
          "time": 40.699999999999996,
          "velocity": 0.6299212598425197
        },
        {
          "duration": 2.4000000000000057,
          "durationTicks": 1920,
          "midi": 69,
          "name": "A4",
          "ticks": 32640,
          "time": 40.699999999999996,
          "velocity": 0.6299212598425197
        },
        {
          "duration": 4.799999999999997,
          "durationTicks": 3840,
          "midi": 38,
          "name": "D2",
          "ticks": 34560,
          "time": 43.1,
          "velocity": 0.6299212598425197
        },
        {
          "duration": 4.799999999999997,
          "durationTicks": 3840,
          "midi": 62,
          "name": "D4",
          "ticks": 34560,
          "time": 43.1,
          "velocity": 0.6299212598425197
        },
        {
          "duration": 4.799999999999997,
          "durationTicks": 3840,
          "midi": 66,
          "name": "F#4",
          "ticks": 34560,
          "time": 43.1,
          "velocity": 0.6299212598425197
        },
        {
          "duration": 4.799999999999997,
          "durationTicks": 3840,
          "midi": 69,
          "name": "A4",
          "ticks": 34560,
          "time": 43.1,
          "velocity": 0.6299212598425197
        },
        {
          "duration": 4.799999999999997,
          "durationTicks": 3840,
          "midi": 47,
          "name": "B2",
          "ticks": 38400,
          "time": 47.9,
          "velocity": 0.6299212598425197
        },
        {
          "duration": 4.799999999999997,
          "durationTicks": 3840,
          "midi": 62,
          "name": "D4",
          "ticks": 38400,
          "time": 47.9,
          "velocity": 0.6299212598425197
        },
        {
          "duration": 4.799999999999997,
          "durationTicks": 3840,
          "midi": 66,
          "name": "F#4",
          "ticks": 38400,
          "time": 47.9,
          "velocity": 0.6299212598425197
        },
        {
          "duration": 4.799999999999997,
          "durationTicks": 3840,
          "midi": 71,
          "name": "B4",
          "ticks": 38400,
          "time": 47.9,
          "velocity": 0.6299212598425197
        },
        {
          "duration": 0.9000000000000057,
          "durationTicks": 720,
          "midi": 43,
          "name": "G2",
          "ticks": 42240,
          "time": 52.699999999999996,
          "velocity": 0.6299212598425197
        },
        {
          "duration": 0.9000000000000057,
          "durationTicks": 720,
          "midi": 62,
          "name": "D4",
          "ticks": 42240,
          "time": 52.699999999999996,
          "velocity": 0.6299212598425197
        },
        {
          "duration": 0.9000000000000057,
          "durationTicks": 720,
          "midi": 67,
          "name": "G4",
          "ticks": 42240,
          "time": 52.699999999999996,
          "velocity": 0.6299212598425197
        },
        {
          "duration": 0.9000000000000057,
          "durationTicks": 720,
          "midi": 71,
          "name": "B4",
          "ticks": 42240,
          "time": 52.699999999999996,
          "velocity": 0.6299212598425197
        },
        {
          "duration": 1.5,
          "durationTicks": 1200,
          "midi": 38,
          "name": "D2",
          "ticks": 42960,
          "time": 53.6,
          "velocity": 0.6299212598425197
        },
        {
          "duration": 1.5,
          "durationTicks": 1200,
          "midi": 62,
          "name": "D4",
          "ticks": 42960,
          "time": 53.6,
          "velocity": 0.6299212598425197
        },
        {
          "duration": 1.5,
          "durationTicks": 1200,
          "midi": 66,
          "name": "F#4",
          "ticks": 42960,
          "time": 53.6,
          "velocity": 0.6299212598425197
        },
        {
          "duration": 1.5,
          "durationTicks": 1200,
          "midi": 69,
          "name": "A4",
          "ticks": 42960,
          "time": 53.6,
          "velocity": 0.6299212598425197
        },
        {
          "duration": 0.8999999999999986,
          "durationTicks": 720,
          "midi": 45,
          "name": "A2",
          "ticks": 44160,
          "time": 55.1,
          "velocity": 0.6299212598425197
        },
        {
          "duration": 0.8999999999999986,
          "durationTicks": 720,
          "midi": 61,
          "name": "C#4",
          "ticks": 44160,
          "time": 55.1,
          "velocity": 0.6299212598425197
        },
        {
          "duration": 0.8999999999999986,
          "durationTicks": 720,
          "midi": 64,
          "name": "E4",
          "ticks": 44160,
          "time": 55.1,
          "velocity": 0.6299212598425197
        },
        {
          "duration": 0.8999999999999986,
          "durationTicks": 720,
          "midi": 69,
          "name": "A4",
          "ticks": 44160,
          "time": 55.1,
          "velocity": 0.6299212598425197
        },
        {
          "duration": 1.5,
          "durationTicks": 1200,
          "midi": 47,
          "name": "B2",
          "ticks": 44880,
          "time": 56,
          "velocity": 0.6299212598425197
        },
        {
          "duration": 1.5,
          "durationTicks": 1200,
          "midi": 62,
          "name": "D4",
          "ticks": 44880,
          "time": 56,
          "velocity": 0.6299212598425197
        },
        {
          "duration": 1.5,
          "durationTicks": 1200,
          "midi": 66,
          "name": "F#4",
          "ticks": 44880,
          "time": 56,
          "velocity": 0.6299212598425197
        },
        {
          "duration": 1.5,
          "durationTicks": 1200,
          "midi": 71,
          "name": "B4",
          "ticks": 44880,
          "time": 56,
          "velocity": 0.6299212598425197
        },
        {
          "duration": 0.8999999999999986,
          "durationTicks": 720,
          "midi": 43,
          "name": "G2",
          "ticks": 46080,
          "time": 57.5,
          "velocity": 0.6299212598425197
        },
        {
          "duration": 0.8999999999999986,
          "durationTicks": 720,
          "midi": 62,
          "name": "D4",
          "ticks": 46080,
          "time": 57.5,
          "velocity": 0.6299212598425197
        },
        {
          "duration": 0.8999999999999986,
          "durationTicks": 720,
          "midi": 67,
          "name": "G4",
          "ticks": 46080,
          "time": 57.5,
          "velocity": 0.6299212598425197
        },
        {
          "duration": 0.8999999999999986,
          "durationTicks": 720,
          "midi": 71,
          "name": "B4",
          "ticks": 46080,
          "time": 57.5,
          "velocity": 0.6299212598425197
        },
        {
          "duration": 1.5,
          "durationTicks": 1200,
          "midi": 38,
          "name": "D2",
          "ticks": 46800,
          "time": 58.4,
          "velocity": 0.6299212598425197
        },
        {
          "duration": 1.5,
          "durationTicks": 1200,
          "midi": 62,
          "name": "D4",
          "ticks": 46800,
          "time": 58.4,
          "velocity": 0.6299212598425197
        },
        {
          "duration": 1.5,
          "durationTicks": 1200,
          "midi": 66,
          "name": "F#4",
          "ticks": 46800,
          "time": 58.4,
          "velocity": 0.6299212598425197
        },
        {
          "duration": 1.5,
          "durationTicks": 1200,
          "midi": 69,
          "name": "A4",
          "ticks": 46800,
          "time": 58.4,
          "velocity": 0.6299212598425197
        },
        {
          "duration": 0.8999999999999986,
          "durationTicks": 720,
          "midi": 47,
          "name": "B2",
          "ticks": 48000,
          "time": 59.9,
          "velocity": 0.6299212598425197
        },
        {
          "duration": 0.8999999999999986,
          "durationTicks": 720,
          "midi": 62,
          "name": "D4",
          "ticks": 48000,
          "time": 59.9,
          "velocity": 0.6299212598425197
        },
        {
          "duration": 0.8999999999999986,
          "durationTicks": 720,
          "midi": 66,
          "name": "F#4",
          "ticks": 48000,
          "time": 59.9,
          "velocity": 0.6299212598425197
        },
        {
          "duration": 0.8999999999999986,
          "durationTicks": 720,
          "midi": 71,
          "name": "B4",
          "ticks": 48000,
          "time": 59.9,
          "velocity": 0.6299212598425197
        },
        {
          "duration": 4.5,
          "durationTicks": 3600,
          "midi": 45,
          "name": "A2",
          "ticks": 48720,
          "time": 60.8,
          "velocity": 0.6299212598425197
        },
        {
          "duration": 4.5,
          "durationTicks": 3600,
          "midi": 61,
          "name": "C#4",
          "ticks": 48720,
          "time": 60.8,
          "velocity": 0.6299212598425197
        },
        {
          "duration": 4.5,
          "durationTicks": 3600,
          "midi": 64,
          "name": "E4",
          "ticks": 48720,
          "time": 60.8,
          "velocity": 0.6299212598425197
        },
        {
          "duration": 4.5,
          "durationTicks": 3600,
          "midi": 69,
          "name": "A4",
          "ticks": 48720,
          "time": 60.8,
          "velocity": 0.6299212598425197
        },
        {
          "duration": 1.7999999999999972,
          "durationTicks": 1440,
          "midi": 38,
          "name": "D2",
          "ticks": 52320,
          "time": 65.3,
          "velocity": 0.6299212598425197
        },
        {
          "duration": 1.7999999999999972,
          "durationTicks": 1440,
          "midi": 62,
          "name": "D4",
          "ticks": 52320,
          "time": 65.3,
          "velocity": 0.6299212598425197
        },
        {
          "duration": 1.7999999999999972,
          "durationTicks": 1440,
          "midi": 66,
          "name": "F#4",
          "ticks": 52320,
          "time": 65.3,
          "velocity": 0.6299212598425197
        },
        {
          "duration": 1.7999999999999972,
          "durationTicks": 1440,
          "midi": 69,
          "name": "A4",
          "ticks": 52320,
          "time": 65.3,
          "velocity": 0.6299212598425197
        },
        {
          "duration": 2.4000000000000057,
          "durationTicks": 1920,
          "midi": 45,
          "name": "A2",
          "ticks": 53760,
          "time": 67.1,
          "velocity": 0.6299212598425197
        },
        {
          "duration": 2.4000000000000057,
          "durationTicks": 1920,
          "midi": 61,
          "name": "C#4",
          "ticks": 53760,
          "time": 67.1,
          "velocity": 0.6299212598425197
        },
        {
          "duration": 2.4000000000000057,
          "durationTicks": 1920,
          "midi": 64,
          "name": "E4",
          "ticks": 53760,
          "time": 67.1,
          "velocity": 0.6299212598425197
        },
        {
          "duration": 2.4000000000000057,
          "durationTicks": 1920,
          "midi": 69,
          "name": "A4",
          "ticks": 53760,
          "time": 67.1,
          "velocity": 0.6299212598425197
        },
        {
          "duration": 2.3999999999999915,
          "durationTicks": 1920,
          "midi": 36,
          "name": "C2",
          "ticks": 55680,
          "time": 69.5,
          "velocity": 0.6299212598425197
        },
        {
          "duration": 2.3999999999999915,
          "durationTicks": 1920,
          "midi": 60,
          "name": "C4",
          "ticks": 55680,
          "time": 69.5,
          "velocity": 0.6299212598425197
        },
        {
          "duration": 2.3999999999999915,
          "durationTicks": 1920,
          "midi": 64,
          "name": "E4",
          "ticks": 55680,
          "time": 69.5,
          "velocity": 0.6299212598425197
        },
        {
          "duration": 2.3999999999999915,
          "durationTicks": 1920,
          "midi": 67,
          "name": "G4",
          "ticks": 55680,
          "time": 69.5,
          "velocity": 0.6299212598425197
        },
        {
          "duration": 2.4000000000000057,
          "durationTicks": 1920,
          "midi": 43,
          "name": "G2",
          "ticks": 57600,
          "time": 71.89999999999999,
          "velocity": 0.6299212598425197
        },
        {
          "duration": 2.4000000000000057,
          "durationTicks": 1920,
          "midi": 62,
          "name": "D4",
          "ticks": 57600,
          "time": 71.89999999999999,
          "velocity": 0.6299212598425197
        },
        {
          "duration": 2.4000000000000057,
          "durationTicks": 1920,
          "midi": 67,
          "name": "G4",
          "ticks": 57600,
          "time": 71.89999999999999,
          "velocity": 0.6299212598425197
        },
        {
          "duration": 2.4000000000000057,
          "durationTicks": 1920,
          "midi": 71,
          "name": "B4",
          "ticks": 57600,
          "time": 71.89999999999999,
          "velocity": 0.6299212598425197
        },
        {
          "duration": 2.4000000000000057,
          "durationTicks": 1920,
          "midi": 38,
          "name": "D2",
          "ticks": 59520,
          "time": 74.3,
          "velocity": 0.6299212598425197
        },
        {
          "duration": 2.4000000000000057,
          "durationTicks": 1920,
          "midi": 62,
          "name": "D4",
          "ticks": 59520,
          "time": 74.3,
          "velocity": 0.6299212598425197
        },
        {
          "duration": 2.4000000000000057,
          "durationTicks": 1920,
          "midi": 66,
          "name": "F#4",
          "ticks": 59520,
          "time": 74.3,
          "velocity": 0.6299212598425197
        },
        {
          "duration": 2.4000000000000057,
          "durationTicks": 1920,
          "midi": 69,
          "name": "A4",
          "ticks": 59520,
          "time": 74.3,
          "velocity": 0.6299212598425197
        },
        {
          "duration": 2.3999999999999915,
          "durationTicks": 1920,
          "midi": 45,
          "name": "A2",
          "ticks": 61440,
          "time": 76.7,
          "velocity": 0.6299212598425197
        },
        {
          "duration": 2.3999999999999915,
          "durationTicks": 1920,
          "midi": 61,
          "name": "C#4",
          "ticks": 61440,
          "time": 76.7,
          "velocity": 0.6299212598425197
        },
        {
          "duration": 2.3999999999999915,
          "durationTicks": 1920,
          "midi": 64,
          "name": "E4",
          "ticks": 61440,
          "time": 76.7,
          "velocity": 0.6299212598425197
        },
        {
          "duration": 2.3999999999999915,
          "durationTicks": 1920,
          "midi": 69,
          "name": "A4",
          "ticks": 61440,
          "time": 76.7,
          "velocity": 0.6299212598425197
        },
        {
          "duration": 2.4000000000000057,
          "durationTicks": 1920,
          "midi": 36,
          "name": "C2",
          "ticks": 63360,
          "time": 79.1,
          "velocity": 0.6299212598425197
        },
        {
          "duration": 2.4000000000000057,
          "durationTicks": 1920,
          "midi": 60,
          "name": "C4",
          "ticks": 63360,
          "time": 79.1,
          "velocity": 0.6299212598425197
        },
        {
          "duration": 2.4000000000000057,
          "durationTicks": 1920,
          "midi": 64,
          "name": "E4",
          "ticks": 63360,
          "time": 79.1,
          "velocity": 0.6299212598425197
        },
        {
          "duration": 2.4000000000000057,
          "durationTicks": 1920,
          "midi": 67,
          "name": "G4",
          "ticks": 63360,
          "time": 79.1,
          "velocity": 0.6299212598425197
        },
        {
          "duration": 2.3999999999999915,
          "durationTicks": 1920,
          "midi": 38,
          "name": "D2",
          "ticks": 65280,
          "time": 81.5,
          "velocity": 0.6299212598425197
        },
        {
          "duration": 2.3999999999999915,
          "durationTicks": 1920,
          "midi": 62,
          "name": "D4",
          "ticks": 65280,
          "time": 81.5,
          "velocity": 0.6299212598425197
        },
        {
          "duration": 2.3999999999999915,
          "durationTicks": 1920,
          "midi": 66,
          "name": "F#4",
          "ticks": 65280,
          "time": 81.5,
          "velocity": 0.6299212598425197
        },
        {
          "duration": 2.3999999999999915,
          "durationTicks": 1920,
          "midi": 69,
          "name": "A4",
          "ticks": 65280,
          "time": 81.5,
          "velocity": 0.6299212598425197
        },
        {
          "duration": 0.9000000000000057,
          "durationTicks": 720,
          "midi": 43,
          "name": "G2",
          "ticks": 67200,
          "time": 83.89999999999999,
          "velocity": 0.6299212598425197
        },
        {
          "duration": 0.9000000000000057,
          "durationTicks": 720,
          "midi": 62,
          "name": "D4",
          "ticks": 67200,
          "time": 83.89999999999999,
          "velocity": 0.6299212598425197
        },
        {
          "duration": 0.9000000000000057,
          "durationTicks": 720,
          "midi": 67,
          "name": "G4",
          "ticks": 67200,
          "time": 83.89999999999999,
          "velocity": 0.6299212598425197
        },
        {
          "duration": 0.9000000000000057,
          "durationTicks": 720,
          "midi": 71,
          "name": "B4",
          "ticks": 67200,
          "time": 83.89999999999999,
          "velocity": 0.6299212598425197
        },
        {
          "duration": 1.5,
          "durationTicks": 1200,
          "midi": 38,
          "name": "D2",
          "ticks": 67920,
          "time": 84.8,
          "velocity": 0.6299212598425197
        },
        {
          "duration": 1.5,
          "durationTicks": 1200,
          "midi": 62,
          "name": "D4",
          "ticks": 67920,
          "time": 84.8,
          "velocity": 0.6299212598425197
        },
        {
          "duration": 1.5,
          "durationTicks": 1200,
          "midi": 66,
          "name": "F#4",
          "ticks": 67920,
          "time": 84.8,
          "velocity": 0.6299212598425197
        },
        {
          "duration": 1.5,
          "durationTicks": 1200,
          "midi": 69,
          "name": "A4",
          "ticks": 67920,
          "time": 84.8,
          "velocity": 0.6299212598425197
        },
        {
          "duration": 0.9000000000000057,
          "durationTicks": 720,
          "midi": 45,
          "name": "A2",
          "ticks": 69120,
          "time": 86.3,
          "velocity": 0.6299212598425197
        },
        {
          "duration": 0.9000000000000057,
          "durationTicks": 720,
          "midi": 61,
          "name": "C#4",
          "ticks": 69120,
          "time": 86.3,
          "velocity": 0.6299212598425197
        },
        {
          "duration": 0.9000000000000057,
          "durationTicks": 720,
          "midi": 64,
          "name": "E4",
          "ticks": 69120,
          "time": 86.3,
          "velocity": 0.6299212598425197
        },
        {
          "duration": 0.9000000000000057,
          "durationTicks": 720,
          "midi": 69,
          "name": "A4",
          "ticks": 69120,
          "time": 86.3,
          "velocity": 0.6299212598425197
        },
        {
          "duration": 1.5,
          "durationTicks": 1200,
          "midi": 47,
          "name": "B2",
          "ticks": 69840,
          "time": 87.2,
          "velocity": 0.6299212598425197
        },
        {
          "duration": 1.5,
          "durationTicks": 1200,
          "midi": 62,
          "name": "D4",
          "ticks": 69840,
          "time": 87.2,
          "velocity": 0.6299212598425197
        },
        {
          "duration": 1.5,
          "durationTicks": 1200,
          "midi": 66,
          "name": "F#4",
          "ticks": 69840,
          "time": 87.2,
          "velocity": 0.6299212598425197
        },
        {
          "duration": 1.5,
          "durationTicks": 1200,
          "midi": 71,
          "name": "B4",
          "ticks": 69840,
          "time": 87.2,
          "velocity": 0.6299212598425197
        },
        {
          "duration": 0.8999999999999915,
          "durationTicks": 720,
          "midi": 43,
          "name": "G2",
          "ticks": 71040,
          "time": 88.7,
          "velocity": 0.6299212598425197
        },
        {
          "duration": 0.8999999999999915,
          "durationTicks": 720,
          "midi": 62,
          "name": "D4",
          "ticks": 71040,
          "time": 88.7,
          "velocity": 0.6299212598425197
        },
        {
          "duration": 0.8999999999999915,
          "durationTicks": 720,
          "midi": 67,
          "name": "G4",
          "ticks": 71040,
          "time": 88.7,
          "velocity": 0.6299212598425197
        },
        {
          "duration": 0.8999999999999915,
          "durationTicks": 720,
          "midi": 71,
          "name": "B4",
          "ticks": 71040,
          "time": 88.7,
          "velocity": 0.6299212598425197
        },
        {
          "duration": 1.5,
          "durationTicks": 1200,
          "midi": 38,
          "name": "D2",
          "ticks": 71760,
          "time": 89.6,
          "velocity": 0.6299212598425197
        },
        {
          "duration": 1.5,
          "durationTicks": 1200,
          "midi": 62,
          "name": "D4",
          "ticks": 71760,
          "time": 89.6,
          "velocity": 0.6299212598425197
        },
        {
          "duration": 1.5,
          "durationTicks": 1200,
          "midi": 66,
          "name": "F#4",
          "ticks": 71760,
          "time": 89.6,
          "velocity": 0.6299212598425197
        },
        {
          "duration": 1.5,
          "durationTicks": 1200,
          "midi": 69,
          "name": "A4",
          "ticks": 71760,
          "time": 89.6,
          "velocity": 0.6299212598425197
        },
        {
          "duration": 0.9000000000000057,
          "durationTicks": 720,
          "midi": 45,
          "name": "A2",
          "ticks": 72960,
          "time": 91.1,
          "velocity": 0.6299212598425197
        },
        {
          "duration": 0.9000000000000057,
          "durationTicks": 720,
          "midi": 61,
          "name": "C#4",
          "ticks": 72960,
          "time": 91.1,
          "velocity": 0.6299212598425197
        },
        {
          "duration": 0.9000000000000057,
          "durationTicks": 720,
          "midi": 64,
          "name": "E4",
          "ticks": 72960,
          "time": 91.1,
          "velocity": 0.6299212598425197
        },
        {
          "duration": 0.9000000000000057,
          "durationTicks": 720,
          "midi": 69,
          "name": "A4",
          "ticks": 72960,
          "time": 91.1,
          "velocity": 0.6299212598425197
        },
        {
          "duration": 1.7999999999999972,
          "durationTicks": 1440,
          "midi": 47,
          "name": "B2",
          "ticks": 73680,
          "time": 92,
          "velocity": 0.6299212598425197
        },
        {
          "duration": 1.7999999999999972,
          "durationTicks": 1440,
          "midi": 62,
          "name": "D4",
          "ticks": 73680,
          "time": 92,
          "velocity": 0.6299212598425197
        },
        {
          "duration": 1.7999999999999972,
          "durationTicks": 1440,
          "midi": 66,
          "name": "F#4",
          "ticks": 73680,
          "time": 92,
          "velocity": 0.6299212598425197
        },
        {
          "duration": 1.7999999999999972,
          "durationTicks": 1440,
          "midi": 71,
          "name": "B4",
          "ticks": 73680,
          "time": 92,
          "velocity": 0.6299212598425197
        },
        {
          "duration": 2.0999999999999943,
          "durationTicks": 1680,
          "midi": 43,
          "name": "G2",
          "ticks": 75120,
          "time": 93.8,
          "velocity": 0.6299212598425197
        },
        {
          "duration": 2.0999999999999943,
          "durationTicks": 1680,
          "midi": 62,
          "name": "D4",
          "ticks": 75120,
          "time": 93.8,
          "velocity": 0.6299212598425197
        },
        {
          "duration": 2.0999999999999943,
          "durationTicks": 1680,
          "midi": 67,
          "name": "G4",
          "ticks": 75120,
          "time": 93.8,
          "velocity": 0.6299212598425197
        },
        {
          "duration": 2.0999999999999943,
          "durationTicks": 1680,
          "midi": 71,
          "name": "B4",
          "ticks": 75120,
          "time": 93.8,
          "velocity": 0.6299212598425197
        },
        {
          "duration": 2.4000000000000057,
          "durationTicks": 1920,
          "midi": 45,
          "name": "A2",
          "ticks": 76800,
          "time": 95.89999999999999,
          "velocity": 0.6299212598425197
        },
        {
          "duration": 2.4000000000000057,
          "durationTicks": 1920,
          "midi": 61,
          "name": "C#4",
          "ticks": 76800,
          "time": 95.89999999999999,
          "velocity": 0.6299212598425197
        },
        {
          "duration": 2.4000000000000057,
          "durationTicks": 1920,
          "midi": 64,
          "name": "E4",
          "ticks": 76800,
          "time": 95.89999999999999,
          "velocity": 0.6299212598425197
        },
        {
          "duration": 2.4000000000000057,
          "durationTicks": 1920,
          "midi": 69,
          "name": "A4",
          "ticks": 76800,
          "time": 95.89999999999999,
          "velocity": 0.6299212598425197
        },
        {
          "duration": 4.799999999999997,
          "durationTicks": 3840,
          "midi": 38,
          "name": "D2",
          "ticks": 78720,
          "time": 98.3,
          "velocity": 0.6299212598425197
        },
        {
          "duration": 4.799999999999997,
          "durationTicks": 3840,
          "midi": 62,
          "name": "D4",
          "ticks": 78720,
          "time": 98.3,
          "velocity": 0.6299212598425197
        },
        {
          "duration": 4.799999999999997,
          "durationTicks": 3840,
          "midi": 66,
          "name": "F#4",
          "ticks": 78720,
          "time": 98.3,
          "velocity": 0.6299212598425197
        },
        {
          "duration": 4.799999999999997,
          "durationTicks": 3840,
          "midi": 69,
          "name": "A4",
          "ticks": 78720,
          "time": 98.3,
          "velocity": 0.6299212598425197
        },
        {
          "duration": 4.799999999999997,
          "durationTicks": 3840,
          "midi": 47,
          "name": "B2",
          "ticks": 82560,
          "time": 103.1,
          "velocity": 0.6299212598425197
        },
        {
          "duration": 4.799999999999997,
          "durationTicks": 3840,
          "midi": 62,
          "name": "D4",
          "ticks": 82560,
          "time": 103.1,
          "velocity": 0.6299212598425197
        },
        {
          "duration": 4.799999999999997,
          "durationTicks": 3840,
          "midi": 66,
          "name": "F#4",
          "ticks": 82560,
          "time": 103.1,
          "velocity": 0.6299212598425197
        },
        {
          "duration": 4.799999999999997,
          "durationTicks": 3840,
          "midi": 71,
          "name": "B4",
          "ticks": 82560,
          "time": 103.1,
          "velocity": 0.6299212598425197
        },
        {
          "duration": 0.9000000000000057,
          "durationTicks": 720,
          "midi": 43,
          "name": "G2",
          "ticks": 86400,
          "time": 107.89999999999999,
          "velocity": 0.6299212598425197
        },
        {
          "duration": 0.9000000000000057,
          "durationTicks": 720,
          "midi": 62,
          "name": "D4",
          "ticks": 86400,
          "time": 107.89999999999999,
          "velocity": 0.6299212598425197
        },
        {
          "duration": 0.9000000000000057,
          "durationTicks": 720,
          "midi": 67,
          "name": "G4",
          "ticks": 86400,
          "time": 107.89999999999999,
          "velocity": 0.6299212598425197
        },
        {
          "duration": 0.9000000000000057,
          "durationTicks": 720,
          "midi": 71,
          "name": "B4",
          "ticks": 86400,
          "time": 107.89999999999999,
          "velocity": 0.6299212598425197
        },
        {
          "duration": 1.5,
          "durationTicks": 1200,
          "midi": 38,
          "name": "D2",
          "ticks": 87120,
          "time": 108.8,
          "velocity": 0.6299212598425197
        },
        {
          "duration": 1.5,
          "durationTicks": 1200,
          "midi": 62,
          "name": "D4",
          "ticks": 87120,
          "time": 108.8,
          "velocity": 0.6299212598425197
        },
        {
          "duration": 1.5,
          "durationTicks": 1200,
          "midi": 66,
          "name": "F#4",
          "ticks": 87120,
          "time": 108.8,
          "velocity": 0.6299212598425197
        },
        {
          "duration": 1.5,
          "durationTicks": 1200,
          "midi": 69,
          "name": "A4",
          "ticks": 87120,
          "time": 108.8,
          "velocity": 0.6299212598425197
        },
        {
          "duration": 0.9000000000000057,
          "durationTicks": 720,
          "midi": 45,
          "name": "A2",
          "ticks": 88320,
          "time": 110.3,
          "velocity": 0.6299212598425197
        },
        {
          "duration": 0.9000000000000057,
          "durationTicks": 720,
          "midi": 61,
          "name": "C#4",
          "ticks": 88320,
          "time": 110.3,
          "velocity": 0.6299212598425197
        },
        {
          "duration": 0.9000000000000057,
          "durationTicks": 720,
          "midi": 64,
          "name": "E4",
          "ticks": 88320,
          "time": 110.3,
          "velocity": 0.6299212598425197
        },
        {
          "duration": 0.9000000000000057,
          "durationTicks": 720,
          "midi": 69,
          "name": "A4",
          "ticks": 88320,
          "time": 110.3,
          "velocity": 0.6299212598425197
        },
        {
          "duration": 1.5,
          "durationTicks": 1200,
          "midi": 47,
          "name": "B2",
          "ticks": 89040,
          "time": 111.2,
          "velocity": 0.6299212598425197
        },
        {
          "duration": 1.5,
          "durationTicks": 1200,
          "midi": 62,
          "name": "D4",
          "ticks": 89040,
          "time": 111.2,
          "velocity": 0.6299212598425197
        },
        {
          "duration": 1.5,
          "durationTicks": 1200,
          "midi": 66,
          "name": "F#4",
          "ticks": 89040,
          "time": 111.2,
          "velocity": 0.6299212598425197
        },
        {
          "duration": 1.5,
          "durationTicks": 1200,
          "midi": 71,
          "name": "B4",
          "ticks": 89040,
          "time": 111.2,
          "velocity": 0.6299212598425197
        },
        {
          "duration": 0.8999999999999915,
          "durationTicks": 720,
          "midi": 43,
          "name": "G2",
          "ticks": 90240,
          "time": 112.7,
          "velocity": 0.6299212598425197
        },
        {
          "duration": 0.8999999999999915,
          "durationTicks": 720,
          "midi": 62,
          "name": "D4",
          "ticks": 90240,
          "time": 112.7,
          "velocity": 0.6299212598425197
        },
        {
          "duration": 0.8999999999999915,
          "durationTicks": 720,
          "midi": 67,
          "name": "G4",
          "ticks": 90240,
          "time": 112.7,
          "velocity": 0.6299212598425197
        },
        {
          "duration": 0.8999999999999915,
          "durationTicks": 720,
          "midi": 71,
          "name": "B4",
          "ticks": 90240,
          "time": 112.7,
          "velocity": 0.6299212598425197
        },
        {
          "duration": 1.5,
          "durationTicks": 1200,
          "midi": 38,
          "name": "D2",
          "ticks": 90960,
          "time": 113.6,
          "velocity": 0.6299212598425197
        },
        {
          "duration": 1.5,
          "durationTicks": 1200,
          "midi": 62,
          "name": "D4",
          "ticks": 90960,
          "time": 113.6,
          "velocity": 0.6299212598425197
        },
        {
          "duration": 1.5,
          "durationTicks": 1200,
          "midi": 66,
          "name": "F#4",
          "ticks": 90960,
          "time": 113.6,
          "velocity": 0.6299212598425197
        },
        {
          "duration": 1.5,
          "durationTicks": 1200,
          "midi": 69,
          "name": "A4",
          "ticks": 90960,
          "time": 113.6,
          "velocity": 0.6299212598425197
        },
        {
          "duration": 0.9000000000000057,
          "durationTicks": 720,
          "midi": 47,
          "name": "B2",
          "ticks": 92160,
          "time": 115.1,
          "velocity": 0.6299212598425197
        },
        {
          "duration": 0.9000000000000057,
          "durationTicks": 720,
          "midi": 62,
          "name": "D4",
          "ticks": 92160,
          "time": 115.1,
          "velocity": 0.6299212598425197
        },
        {
          "duration": 0.9000000000000057,
          "durationTicks": 720,
          "midi": 66,
          "name": "F#4",
          "ticks": 92160,
          "time": 115.1,
          "velocity": 0.6299212598425197
        },
        {
          "duration": 0.9000000000000057,
          "durationTicks": 720,
          "midi": 71,
          "name": "B4",
          "ticks": 92160,
          "time": 115.1,
          "velocity": 0.6299212598425197
        },
        {
          "duration": 3.8999999999999915,
          "durationTicks": 3120,
          "midi": 45,
          "name": "A2",
          "ticks": 92880,
          "time": 116,
          "velocity": 0.6299212598425197
        },
        {
          "duration": 3.8999999999999915,
          "durationTicks": 3120,
          "midi": 61,
          "name": "C#4",
          "ticks": 92880,
          "time": 116,
          "velocity": 0.6299212598425197
        },
        {
          "duration": 3.8999999999999915,
          "durationTicks": 3120,
          "midi": 64,
          "name": "E4",
          "ticks": 92880,
          "time": 116,
          "velocity": 0.6299212598425197
        },
        {
          "duration": 3.8999999999999915,
          "durationTicks": 3120,
          "midi": 69,
          "name": "A4",
          "ticks": 92880,
          "time": 116,
          "velocity": 0.6299212598425197
        },
        {
          "duration": 2.4000000000000057,
          "durationTicks": 1920,
          "midi": 36,
          "name": "C2",
          "ticks": 96000,
          "time": 119.89999999999999,
          "velocity": 0.6299212598425197
        },
        {
          "duration": 2.4000000000000057,
          "durationTicks": 1920,
          "midi": 60,
          "name": "C4",
          "ticks": 96000,
          "time": 119.89999999999999,
          "velocity": 0.6299212598425197
        },
        {
          "duration": 2.4000000000000057,
          "durationTicks": 1920,
          "midi": 64,
          "name": "E4",
          "ticks": 96000,
          "time": 119.89999999999999,
          "velocity": 0.6299212598425197
        },
        {
          "duration": 2.4000000000000057,
          "durationTicks": 1920,
          "midi": 67,
          "name": "G4",
          "ticks": 96000,
          "time": 119.89999999999999,
          "velocity": 0.6299212598425197
        },
        {
          "duration": 3.5999999999999943,
          "durationTicks": 2880,
          "midi": 43,
          "name": "G2",
          "ticks": 97920,
          "time": 122.3,
          "velocity": 0.6299212598425197
        },
        {
          "duration": 3.5999999999999943,
          "durationTicks": 2880,
          "midi": 62,
          "name": "D4",
          "ticks": 97920,
          "time": 122.3,
          "velocity": 0.6299212598425197
        },
        {
          "duration": 3.5999999999999943,
          "durationTicks": 2880,
          "midi": 67,
          "name": "G4",
          "ticks": 97920,
          "time": 122.3,
          "velocity": 0.6299212598425197
        },
        {
          "duration": 3.5999999999999943,
          "durationTicks": 2880,
          "midi": 71,
          "name": "B4",
          "ticks": 97920,
          "time": 122.3,
          "velocity": 0.6299212598425197
        },
        {
          "duration": 1.5,
          "durationTicks": 1200,
          "midi": 41,
          "name": "F2",
          "ticks": 100800,
          "time": 125.89999999999999,
          "velocity": 0.6299212598425197
        },
        {
          "duration": 1.5,
          "durationTicks": 1200,
          "midi": 60,
          "name": "C4",
          "ticks": 100800,
          "time": 125.89999999999999,
          "velocity": 0.6299212598425197
        },
        {
          "duration": 1.5,
          "durationTicks": 1200,
          "midi": 65,
          "name": "F4",
          "ticks": 100800,
          "time": 125.89999999999999,
          "velocity": 0.6299212598425197
        },
        {
          "duration": 1.5,
          "durationTicks": 1200,
          "midi": 69,
          "name": "A4",
          "ticks": 100800,
          "time": 125.89999999999999,
          "velocity": 0.6299212598425197
        },
        {
          "duration": 3.299999999999997,
          "durationTicks": 2640,
          "midi": 36,
          "name": "C2",
          "ticks": 102000,
          "time": 127.39999999999999,
          "velocity": 0.6299212598425197
        },
        {
          "duration": 3.299999999999997,
          "durationTicks": 2640,
          "midi": 60,
          "name": "C4",
          "ticks": 102000,
          "time": 127.39999999999999,
          "velocity": 0.6299212598425197
        },
        {
          "duration": 3.299999999999997,
          "durationTicks": 2640,
          "midi": 64,
          "name": "E4",
          "ticks": 102000,
          "time": 127.39999999999999,
          "velocity": 0.6299212598425197
        },
        {
          "duration": 3.299999999999997,
          "durationTicks": 2640,
          "midi": 67,
          "name": "G4",
          "ticks": 102000,
          "time": 127.39999999999999,
          "velocity": 0.6299212598425197
        },
        {
          "duration": 3.5999999999999943,
          "durationTicks": 2880,
          "midi": 45,
          "name": "A2",
          "ticks": 104640,
          "time": 130.7,
          "velocity": 0.6299212598425197
        },
        {
          "duration": 3.5999999999999943,
          "durationTicks": 2880,
          "midi": 61,
          "name": "C#4",
          "ticks": 104640,
          "time": 130.7,
          "velocity": 0.6299212598425197
        },
        {
          "duration": 3.5999999999999943,
          "durationTicks": 2880,
          "midi": 64,
          "name": "E4",
          "ticks": 104640,
          "time": 130.7,
          "velocity": 0.6299212598425197
        },
        {
          "duration": 3.5999999999999943,
          "durationTicks": 2880,
          "midi": 69,
          "name": "A4",
          "ticks": 104640,
          "time": 130.7,
          "velocity": 0.6299212598425197
        },
        {
          "duration": 0.9000000000000057,
          "durationTicks": 720,
          "midi": 43,
          "name": "G2",
          "ticks": 107520,
          "time": 134.29999999999998,
          "velocity": 0.6299212598425197
        },
        {
          "duration": 0.9000000000000057,
          "durationTicks": 720,
          "midi": 62,
          "name": "D4",
          "ticks": 107520,
          "time": 134.29999999999998,
          "velocity": 0.6299212598425197
        },
        {
          "duration": 0.9000000000000057,
          "durationTicks": 720,
          "midi": 67,
          "name": "G4",
          "ticks": 107520,
          "time": 134.29999999999998,
          "velocity": 0.6299212598425197
        },
        {
          "duration": 0.9000000000000057,
          "durationTicks": 720,
          "midi": 71,
          "name": "B4",
          "ticks": 107520,
          "time": 134.29999999999998,
          "velocity": 0.6299212598425197
        },
        {
          "duration": 1.5,
          "durationTicks": 1200,
          "midi": 38,
          "name": "D2",
          "ticks": 108240,
          "time": 135.2,
          "velocity": 0.6299212598425197
        },
        {
          "duration": 1.5,
          "durationTicks": 1200,
          "midi": 62,
          "name": "D4",
          "ticks": 108240,
          "time": 135.2,
          "velocity": 0.6299212598425197
        },
        {
          "duration": 1.5,
          "durationTicks": 1200,
          "midi": 66,
          "name": "F#4",
          "ticks": 108240,
          "time": 135.2,
          "velocity": 0.6299212598425197
        },
        {
          "duration": 1.5,
          "durationTicks": 1200,
          "midi": 69,
          "name": "A4",
          "ticks": 108240,
          "time": 135.2,
          "velocity": 0.6299212598425197
        },
        {
          "duration": 0.5999999999999943,
          "durationTicks": 480,
          "midi": 45,
          "name": "A2",
          "ticks": 109440,
          "time": 136.7,
          "velocity": 0.6299212598425197
        },
        {
          "duration": 0.5999999999999943,
          "durationTicks": 480,
          "midi": 61,
          "name": "C#4",
          "ticks": 109440,
          "time": 136.7,
          "velocity": 0.6299212598425197
        },
        {
          "duration": 0.5999999999999943,
          "durationTicks": 480,
          "midi": 64,
          "name": "E4",
          "ticks": 109440,
          "time": 136.7,
          "velocity": 0.6299212598425197
        },
        {
          "duration": 0.5999999999999943,
          "durationTicks": 480,
          "midi": 69,
          "name": "A4",
          "ticks": 109440,
          "time": 136.7,
          "velocity": 0.6299212598425197
        },
        {
          "duration": 1.8000000000000114,
          "durationTicks": 1440,
          "midi": 47,
          "name": "B2",
          "ticks": 109920,
          "time": 137.29999999999998,
          "velocity": 0.6299212598425197
        },
        {
          "duration": 1.8000000000000114,
          "durationTicks": 1440,
          "midi": 62,
          "name": "D4",
          "ticks": 109920,
          "time": 137.29999999999998,
          "velocity": 0.6299212598425197
        },
        {
          "duration": 1.8000000000000114,
          "durationTicks": 1440,
          "midi": 66,
          "name": "F#4",
          "ticks": 109920,
          "time": 137.29999999999998,
          "velocity": 0.6299212598425197
        },
        {
          "duration": 1.8000000000000114,
          "durationTicks": 1440,
          "midi": 71,
          "name": "B4",
          "ticks": 109920,
          "time": 137.29999999999998,
          "velocity": 0.6299212598425197
        },
        {
          "duration": 0.9000000000000057,
          "durationTicks": 720,
          "midi": 43,
          "name": "G2",
          "ticks": 111360,
          "time": 139.1,
          "velocity": 0.6299212598425197
        },
        {
          "duration": 0.9000000000000057,
          "durationTicks": 720,
          "midi": 62,
          "name": "D4",
          "ticks": 111360,
          "time": 139.1,
          "velocity": 0.6299212598425197
        },
        {
          "duration": 0.9000000000000057,
          "durationTicks": 720,
          "midi": 67,
          "name": "G4",
          "ticks": 111360,
          "time": 139.1,
          "velocity": 0.6299212598425197
        },
        {
          "duration": 0.9000000000000057,
          "durationTicks": 720,
          "midi": 71,
          "name": "B4",
          "ticks": 111360,
          "time": 139.1,
          "velocity": 0.6299212598425197
        },
        {
          "duration": 1.5,
          "durationTicks": 1200,
          "midi": 38,
          "name": "D2",
          "ticks": 112080,
          "time": 140,
          "velocity": 0.6299212598425197
        },
        {
          "duration": 1.5,
          "durationTicks": 1200,
          "midi": 62,
          "name": "D4",
          "ticks": 112080,
          "time": 140,
          "velocity": 0.6299212598425197
        },
        {
          "duration": 1.5,
          "durationTicks": 1200,
          "midi": 66,
          "name": "F#4",
          "ticks": 112080,
          "time": 140,
          "velocity": 0.6299212598425197
        },
        {
          "duration": 1.5,
          "durationTicks": 1200,
          "midi": 69,
          "name": "A4",
          "ticks": 112080,
          "time": 140,
          "velocity": 0.6299212598425197
        },
        {
          "duration": 0.9000000000000057,
          "durationTicks": 720,
          "midi": 45,
          "name": "A2",
          "ticks": 113280,
          "time": 141.5,
          "velocity": 0.6299212598425197
        },
        {
          "duration": 0.9000000000000057,
          "durationTicks": 720,
          "midi": 61,
          "name": "C#4",
          "ticks": 113280,
          "time": 141.5,
          "velocity": 0.6299212598425197
        },
        {
          "duration": 0.9000000000000057,
          "durationTicks": 720,
          "midi": 64,
          "name": "E4",
          "ticks": 113280,
          "time": 141.5,
          "velocity": 0.6299212598425197
        },
        {
          "duration": 0.9000000000000057,
          "durationTicks": 720,
          "midi": 69,
          "name": "A4",
          "ticks": 113280,
          "time": 141.5,
          "velocity": 0.6299212598425197
        },
        {
          "duration": 1.5,
          "durationTicks": 1200,
          "midi": 38,
          "name": "D2",
          "ticks": 114000,
          "time": 142.4,
          "velocity": 0.6299212598425197
        },
        {
          "duration": 1.5,
          "durationTicks": 1200,
          "midi": 62,
          "name": "D4",
          "ticks": 114000,
          "time": 142.4,
          "velocity": 0.6299212598425197
        },
        {
          "duration": 1.5,
          "durationTicks": 1200,
          "midi": 66,
          "name": "F#4",
          "ticks": 114000,
          "time": 142.4,
          "velocity": 0.6299212598425197
        },
        {
          "duration": 1.5,
          "durationTicks": 1200,
          "midi": 69,
          "name": "A4",
          "ticks": 114000,
          "time": 142.4,
          "velocity": 0.6299212598425197
        },
        {
          "duration": 2.3999999999999773,
          "durationTicks": 1920,
          "midi": 38,
          "name": "D2",
          "ticks": 115200,
          "time": 143.9,
          "velocity": 0.6299212598425197
        },
        {
          "duration": 2.3999999999999773,
          "durationTicks": 1920,
          "midi": 62,
          "name": "D4",
          "ticks": 115200,
          "time": 143.9,
          "velocity": 0.6299212598425197
        },
        {
          "duration": 2.3999999999999773,
          "durationTicks": 1920,
          "midi": 66,
          "name": "F#4",
          "ticks": 115200,
          "time": 143.9,
          "velocity": 0.6299212598425197
        },
        {
          "duration": 2.3999999999999773,
          "durationTicks": 1920,
          "midi": 69,
          "name": "A4",
          "ticks": 115200,
          "time": 143.9,
          "velocity": 0.6299212598425197
        },
        {
          "duration": 3.9000000000000057,
          "durationTicks": 3120,
          "midi": 45,
          "name": "A2",
          "ticks": 117120,
          "time": 146.29999999999998,
          "velocity": 0.6299212598425197
        },
        {
          "duration": 3.9000000000000057,
          "durationTicks": 3120,
          "midi": 61,
          "name": "C#4",
          "ticks": 117120,
          "time": 146.29999999999998,
          "velocity": 0.6299212598425197
        },
        {
          "duration": 3.9000000000000057,
          "durationTicks": 3120,
          "midi": 64,
          "name": "E4",
          "ticks": 117120,
          "time": 146.29999999999998,
          "velocity": 0.6299212598425197
        },
        {
          "duration": 3.9000000000000057,
          "durationTicks": 3120,
          "midi": 69,
          "name": "A4",
          "ticks": 117120,
          "time": 146.29999999999998,
          "velocity": 0.6299212598425197
        },
        {
          "duration": 3.3000000000000114,
          "durationTicks": 2640,
          "midi": 43,
          "name": "G2",
          "ticks": 120240,
          "time": 150.2,
          "velocity": 0.6299212598425197
        },
        {
          "duration": 3.3000000000000114,
          "durationTicks": 2640,
          "midi": 62,
          "name": "D4",
          "ticks": 120240,
          "time": 150.2,
          "velocity": 0.6299212598425197
        },
        {
          "duration": 3.3000000000000114,
          "durationTicks": 2640,
          "midi": 67,
          "name": "G4",
          "ticks": 120240,
          "time": 150.2,
          "velocity": 0.6299212598425197
        },
        {
          "duration": 3.3000000000000114,
          "durationTicks": 2640,
          "midi": 71,
          "name": "B4",
          "ticks": 120240,
          "time": 150.2,
          "velocity": 0.6299212598425197
        },
        {
          "duration": 2.4000000000000057,
          "durationTicks": 1920,
          "midi": 45,
          "name": "A2",
          "ticks": 122880,
          "time": 153.5,
          "velocity": 0.6299212598425197
        },
        {
          "duration": 2.4000000000000057,
          "durationTicks": 1920,
          "midi": 61,
          "name": "C#4",
          "ticks": 122880,
          "time": 153.5,
          "velocity": 0.6299212598425197
        },
        {
          "duration": 2.4000000000000057,
          "durationTicks": 1920,
          "midi": 64,
          "name": "E4",
          "ticks": 122880,
          "time": 153.5,
          "velocity": 0.6299212598425197
        },
        {
          "duration": 2.4000000000000057,
          "durationTicks": 1920,
          "midi": 69,
          "name": "A4",
          "ticks": 122880,
          "time": 153.5,
          "velocity": 0.6299212598425197
        },
        {
          "duration": 4.799999999999983,
          "durationTicks": 3840,
          "midi": 40,
          "name": "E2",
          "ticks": 124800,
          "time": 155.9,
          "velocity": 0.6299212598425197
        },
        {
          "duration": 4.799999999999983,
          "durationTicks": 3840,
          "midi": 64,
          "name": "E4",
          "ticks": 124800,
          "time": 155.9,
          "velocity": 0.6299212598425197
        },
        {
          "duration": 4.799999999999983,
          "durationTicks": 3840,
          "midi": 68,
          "name": "G#4",
          "ticks": 124800,
          "time": 155.9,
          "velocity": 0.6299212598425197
        },
        {
          "duration": 4.799999999999983,
          "durationTicks": 3840,
          "midi": 71,
          "name": "B4",
          "ticks": 124800,
          "time": 155.9,
          "velocity": 0.6299212598425197
        },
        {
          "duration": 4.800000000000011,
          "durationTicks": 3840,
          "midi": 37,
          "name": "C#2",
          "ticks": 128640,
          "time": 160.7,
          "velocity": 0.6299212598425197
        },
        {
          "duration": 4.800000000000011,
          "durationTicks": 3840,
          "midi": 61,
          "name": "C#4",
          "ticks": 128640,
          "time": 160.7,
          "velocity": 0.6299212598425197
        },
        {
          "duration": 4.800000000000011,
          "durationTicks": 3840,
          "midi": 64,
          "name": "E4",
          "ticks": 128640,
          "time": 160.7,
          "velocity": 0.6299212598425197
        },
        {
          "duration": 4.800000000000011,
          "durationTicks": 3840,
          "midi": 68,
          "name": "G#4",
          "ticks": 128640,
          "time": 160.7,
          "velocity": 0.6299212598425197
        },
        {
          "duration": 0.9000000000000057,
          "durationTicks": 720,
          "midi": 45,
          "name": "A2",
          "ticks": 132480,
          "time": 165.5,
          "velocity": 0.6299212598425197
        },
        {
          "duration": 0.9000000000000057,
          "durationTicks": 720,
          "midi": 61,
          "name": "C#4",
          "ticks": 132480,
          "time": 165.5,
          "velocity": 0.6299212598425197
        },
        {
          "duration": 0.9000000000000057,
          "durationTicks": 720,
          "midi": 64,
          "name": "E4",
          "ticks": 132480,
          "time": 165.5,
          "velocity": 0.6299212598425197
        },
        {
          "duration": 0.9000000000000057,
          "durationTicks": 720,
          "midi": 69,
          "name": "A4",
          "ticks": 132480,
          "time": 165.5,
          "velocity": 0.6299212598425197
        },
        {
          "duration": 2.0999999999999943,
          "durationTicks": 1680,
          "midi": 40,
          "name": "E2",
          "ticks": 133200,
          "time": 166.4,
          "velocity": 0.6299212598425197
        },
        {
          "duration": 2.0999999999999943,
          "durationTicks": 1680,
          "midi": 64,
          "name": "E4",
          "ticks": 133200,
          "time": 166.4,
          "velocity": 0.6299212598425197
        },
        {
          "duration": 2.0999999999999943,
          "durationTicks": 1680,
          "midi": 68,
          "name": "G#4",
          "ticks": 133200,
          "time": 166.4,
          "velocity": 0.6299212598425197
        },
        {
          "duration": 2.0999999999999943,
          "durationTicks": 1680,
          "midi": 71,
          "name": "B4",
          "ticks": 133200,
          "time": 166.4,
          "velocity": 0.6299212598425197
        },
        {
          "duration": 1.799999999999983,
          "durationTicks": 1440,
          "midi": 37,
          "name": "C#2",
          "ticks": 134880,
          "time": 168.5,
          "velocity": 0.6299212598425197
        },
        {
          "duration": 1.799999999999983,
          "durationTicks": 1440,
          "midi": 61,
          "name": "C#4",
          "ticks": 134880,
          "time": 168.5,
          "velocity": 0.6299212598425197
        },
        {
          "duration": 1.799999999999983,
          "durationTicks": 1440,
          "midi": 64,
          "name": "E4",
          "ticks": 134880,
          "time": 168.5,
          "velocity": 0.6299212598425197
        },
        {
          "duration": 1.799999999999983,
          "durationTicks": 1440,
          "midi": 68,
          "name": "G#4",
          "ticks": 134880,
          "time": 168.5,
          "velocity": 0.6299212598425197
        },
        {
          "duration": 2.4000000000000057,
          "durationTicks": 1920,
          "midi": 45,
          "name": "A2",
          "ticks": 136320,
          "time": 170.29999999999998,
          "velocity": 0.6299212598425197
        },
        {
          "duration": 2.4000000000000057,
          "durationTicks": 1920,
          "midi": 61,
          "name": "C#4",
          "ticks": 136320,
          "time": 170.29999999999998,
          "velocity": 0.6299212598425197
        },
        {
          "duration": 2.4000000000000057,
          "durationTicks": 1920,
          "midi": 64,
          "name": "E4",
          "ticks": 136320,
          "time": 170.29999999999998,
          "velocity": 0.6299212598425197
        },
        {
          "duration": 2.4000000000000057,
          "durationTicks": 1920,
          "midi": 69,
          "name": "A4",
          "ticks": 136320,
          "time": 170.29999999999998,
          "velocity": 0.6299212598425197
        },
        {
          "duration": 0.9000000000000057,
          "durationTicks": 720,
          "midi": 37,
          "name": "C#2",
          "ticks": 138240,
          "time": 172.7,
          "velocity": 0.6299212598425197
        },
        {
          "duration": 0.9000000000000057,
          "durationTicks": 720,
          "midi": 61,
          "name": "C#4",
          "ticks": 138240,
          "time": 172.7,
          "velocity": 0.6299212598425197
        },
        {
          "duration": 0.9000000000000057,
          "durationTicks": 720,
          "midi": 64,
          "name": "E4",
          "ticks": 138240,
          "time": 172.7,
          "velocity": 0.6299212598425197
        },
        {
          "duration": 0.9000000000000057,
          "durationTicks": 720,
          "midi": 68,
          "name": "G#4",
          "ticks": 138240,
          "time": 172.7,
          "velocity": 0.6299212598425197
        },
        {
          "duration": 1.5,
          "durationTicks": 1200,
          "midi": 47,
          "name": "B2",
          "ticks": 138960,
          "time": 173.6,
          "velocity": 0.6299212598425197
        },
        {
          "duration": 1.5,
          "durationTicks": 1200,
          "midi": 63,
          "name": "D#4",
          "ticks": 138960,
          "time": 173.6,
          "velocity": 0.6299212598425197
        },
        {
          "duration": 1.5,
          "durationTicks": 1200,
          "midi": 66,
          "name": "F#4",
          "ticks": 138960,
          "time": 173.6,
          "velocity": 0.6299212598425197
        },
        {
          "duration": 1.5,
          "durationTicks": 1200,
          "midi": 71,
          "name": "B4",
          "ticks": 138960,
          "time": 173.6,
          "velocity": 0.6299212598425197
        },
        {
          "duration": 2.4000000000000057,
          "durationTicks": 1920,
          "midi": 40,
          "name": "E2",
          "ticks": 140160,
          "time": 175.1,
          "velocity": 0.6299212598425197
        },
        {
          "duration": 2.4000000000000057,
          "durationTicks": 1920,
          "midi": 64,
          "name": "E4",
          "ticks": 140160,
          "time": 175.1,
          "velocity": 0.6299212598425197
        },
        {
          "duration": 2.4000000000000057,
          "durationTicks": 1920,
          "midi": 68,
          "name": "G#4",
          "ticks": 140160,
          "time": 175.1,
          "velocity": 0.6299212598425197
        },
        {
          "duration": 2.4000000000000057,
          "durationTicks": 1920,
          "midi": 71,
          "name": "B4",
          "ticks": 140160,
          "time": 175.1,
          "velocity": 0.6299212598425197
        }
      ]
    }
  ]
}
];
